<?xml version="1.0" encoding="UTF-8"?>
<svg id="Layer_2" data-name="Layer 2" xmlns="http://www.w3.org/2000/svg" viewBox="0 0 85.69 123">
  <defs>
    <style>
      .cls-1 {
        fill: #0f0f0f;
        stroke-width: 0px;
      }
    </style>
  </defs>
  <g id="Layer_1-2" data-name="Layer 1">
    <g id="NewGroupe5">
      <g id="NewGroup0-18">
        <g>
          <path class="cls-1" d="M83.89,47.5c1,0,1.8-.81,1.8-1.8V9.26c0-.99-.81-1.8-1.8-1.8h-28.74l-3.23-6.47c-.31-.61-.93-1-1.61-1h-14.92c-.68,0-1.31.39-1.61,1l-3.23,6.47H1.8c-1,0-1.8.81-1.8,1.8v111.93c0,1,.81,1.8,1.8,1.8h82.08c1,0,1.8-.81,1.8-1.8V53.55c-.08-2.39-3.52-2.38-3.6,0v65.85H3.6V11.07h15.36c-.2.56-.31,1.17-.31,1.8v2.06h-9.39c-1,0-1.8.81-1.8,1.8v66.96c.08,2.39,3.52,2.38,3.6,0V18.53h7.59v2.06c0,2.98,2.42,5.41,5.41,5.41h15.11c2.39-.08,2.38-3.52,0-3.6h-15.11c-.99,0-1.8-.81-1.8-1.8v-7.72c0-.99.81-1.8,1.8-1.8h7.59c.68,0,1.31-.39,1.61-1l3.23-6.47h12.7l3.23,6.47c.31.61.93,1,1.61,1h7.59c.99,0,1.8.81,1.8,1.8v7.72c0,.99-.81,1.8-1.8,1.8h-14.6c-2.39.08-2.38,3.52,0,3.6h14.6c2.98,0,5.41-2.42,5.41-5.41v-2.06h7.59v93.41H11.07v-20.39c-.08-2.39-3.52-2.38-3.6,0v22.19c0,.99.81,1.8,1.8,1.8h67.16c1,0,1.8-.81,1.8-1.8V16.73c0-.99-.81-1.8-1.8-1.8h-9.39v-2.06c0-.63-.11-1.24-.31-1.8h15.36v34.63c0,.99.81,1.8,1.8,1.8h0Z"/>
          <path class="cls-1" d="M21.73,71.42c-.7-.7-1.84-.7-2.55,0-.7.7-.7,1.84,0,2.55l3.73,3.73c.85.7,1.7.7,2.55,0l7.46-7.46c.7-.7.7-1.84,0-2.55-.7-.7-1.84-.7-2.55,0l-6.19,6.19-2.46-2.46h0Z"/>
          <path class="cls-1" d="M65.23,70.89h-26.12c-2.39.08-2.38,3.52,0,3.6h26.12c2.39-.08,2.38-3.52,0-3.6h0Z"/>
          <path class="cls-1" d="M65.23,85.82h-26.12c-2.39.08-2.38,3.52,0,3.6h26.12c2.39-.08,2.38-3.52,0-3.6h0Z"/>
          <path class="cls-1" d="M22.23,85.69h3.86v3.86h-3.86v-3.86h0ZM18.63,91.35c0,.99.81,1.8,1.8,1.8h7.46c1,0,1.8-.81,1.8-1.8v-7.46c0-.99-.81-1.8-1.8-1.8h-7.46c-1,0-1.8.81-1.8,1.8v7.46h0Z"/>
          <path class="cls-1" d="M65.23,100.74h-26.12c-2.39.08-2.38,3.52,0,3.6h26.12c2.39-.08,2.38-3.52,0-3.6h0Z"/>
          <path class="cls-1" d="M22.23,100.61h3.86v3.86h-3.86v-3.86h0ZM18.63,106.27c0,1,.81,1.8,1.8,1.8h7.46c1,0,1.8-.81,1.8-1.8v-7.46c0-1-.81-1.8-1.8-1.8h-7.46c-1,0-1.8.81-1.8,1.8v7.46h0Z"/>
          <path class="cls-1" d="M42.84,33.9l9.39,7.04v15.02h-3.86v-9.39c0-1-.81-1.8-1.8-1.8h-7.46c-1,0-1.8.81-1.8,1.8v9.39h-3.86v-15.02l9.39-7.04h0ZM40.91,55.97v-7.59h3.86v7.59h-3.86ZM26.84,41.4c-.8.6-.96,1.73-.36,2.52.93,1.23,2.55.59,3.37-.28v12.32h-1.93c-2.38.08-2.39,3.52,0,3.6h29.85c2.38-.08,2.39-3.52,0-3.6h-1.93v-12.32c.82.87,2.44,1.51,3.37.28.6-.8.44-1.93-.36-2.52l-14.92-11.19c-.64-.48-1.52-.48-2.16,0l-14.92,11.19h0Z"/>
          <path class="cls-1" d="M48.38,9.26c0-1-.81-1.8-1.8-1.8h-7.46c-2.39.08-2.38,3.52,0,3.6h7.46c1,0,1.8-.81,1.8-1.8h0Z"/>
        </g>
      </g>
    </g>
  </g>
</svg>