<?xml version="1.0" encoding="UTF-8"?>
<svg id="Layer_2" data-name="Layer 2" xmlns="http://www.w3.org/2000/svg" viewBox="0 0 123 108.08">
  <defs>
    <style>
      .cls-1 {
        fill: #0f0f0f;
        stroke-width: 0px;
      }
    </style>
  </defs>
  <g id="Layer_1-2" data-name="Layer 1">
    <g id="NewGroupe12">
      <g id="NewGroup0-11">
        <g>
          <path class="cls-1" d="M11.07,22.39v-11.32h100.87v11.32H11.07ZM113.74,51.91c1,0,1.8-.81,1.8-1.8V9.27c0-.99-.81-1.8-1.8-1.8H9.26c-1,0-1.8.81-1.8,1.8v63.06c0,1,.81,1.8,1.8,1.8h104.47c1,0,1.8-.81,1.8-1.8v-14.36c-.08-2.39-3.52-2.38-3.6,0v12.56H11.07V25.99h100.87v24.12c0,.99.81,1.8,1.8,1.8h0Z"/>
          <path class="cls-1" d="M52.11,97.01v-7.86h18.78v7.86h-18.78ZM117.59,0H37.46c-2.39.08-2.38,3.52,0,3.6h80.14c.99,0,1.8.81,1.8,1.8v78.34c0,.99-.81,1.8-1.8,1.8H5.41c-.99,0-1.8-.81-1.8-1.8V5.41c0-.99.81-1.8,1.8-1.8h24.2c2.39-.08,2.38-3.52,0-3.6H5.41C2.42,0,0,2.42,0,5.41v78.34c0,2.98,2.42,5.41,5.41,5.41h43.1v7.86h-16.85c-1,0-1.8.81-1.8,1.8v7.46c0,.99.81,1.8,1.8,1.8h14.73c2.39-.08,2.38-3.52,0-3.6h-12.93v-3.86h56.09v3.86h-35.31c-2.39.08-2.38,3.52,0,3.6h37.12c1,0,1.8-.81,1.8-1.8v-7.46c0-1-.81-1.8-1.8-1.8h-16.85v-7.86h43.1c2.98,0,5.41-2.42,5.41-5.41V5.41c0-2.98-2.42-5.41-5.41-5.41h0Z"/>
          <path class="cls-1" d="M54.04,78.35c-2.39.08-2.38,3.52,0,3.6h14.92c2.39-.08,2.38-3.52,0-3.6h-14.92Z"/>
          <path class="cls-1" d="M24.2,14.93h-3.73c-2.39.08-2.38,3.52,0,3.6h3.73c2.39-.08,2.38-3.52,0-3.6h0Z"/>
          <path class="cls-1" d="M35.4,14.93h-3.73c-2.39.08-2.38,3.52,0,3.6h3.73c2.39-.08,2.38-3.52,0-3.6h0Z"/>
          <path class="cls-1" d="M46.59,14.93h-3.73c-2.39.08-2.38,3.52,0,3.6h3.73c2.39-.08,2.38-3.52,0-3.6h0Z"/>
          <path class="cls-1" d="M33.47,59.7v-7.59h3.86v7.59h-3.86ZM26.01,44.68l9.39-7.04,9.39,7.04v15.02h-3.86v-9.39c0-.99-.81-1.8-1.8-1.8h-7.46c-1,0-1.8.81-1.8,1.8v9.39h-3.86v-15.02h0ZM51.76,47.66c.73-.89.44-1.93-.36-2.52l-14.92-11.19c-.64-.48-1.52-.48-2.16,0l-14.92,11.19c-.8.6-.95,1.72-.36,2.52,1.03,1.4,2.55.59,3.37-.28v12.32h-1.93c-2.38.08-2.39,3.52,0,3.6h29.85c2.38-.08,2.39-3.52,0-3.6h-1.93v-12.32c.53.8,2.32,1.55,3.37.28h0Z"/>
          <path class="cls-1" d="M104.34,46.58c0-.99-.81-1.8-1.8-1.8h-41.03c-2.39.08-2.38,3.52,0,3.6h41.03c.99,0,1.8-.81,1.8-1.8h0Z"/>
          <path class="cls-1" d="M61.51,63.3h29.83c2.39-.08,2.38-3.52,0-3.6h-29.83c-2.39.08-2.38,3.52,0,3.6h0Z"/>
          <path class="cls-1" d="M61.51,55.84h18.64c2.39-.08,2.38-3.52,0-3.6h-18.64c-2.39.08-2.38,3.52,0,3.6h0Z"/>
          <path class="cls-1" d="M63.32,33.45h26.23v3.86h-26.23v-3.86h0ZM61.51,40.92h29.83c1,0,1.8-.81,1.8-1.8v-7.46c0-1-.81-1.8-1.8-1.8h-29.83c-1,0-1.8.81-1.8,1.8v7.46c0,1,.81,1.8,1.8,1.8h0Z"/>
        </g>
      </g>
    </g>
  </g>
</svg>