<?xml version="1.0" encoding="UTF-8"?>
<svg id="Layer_2" data-name="Layer 2" xmlns="http://www.w3.org/2000/svg" viewBox="0 0 165.53 168.09">
  <defs>
    <style>
      .cls-1 {
        stroke-width: 0px;
      }
    </style>
  </defs>
  <g id="_Ñëîé_1" data-name="Ñëîé 1">
    <path class="cls-1" d="M102.56,60.19s-3.14,1.55-7.32,1.97c-.33,5.93-2,10.47-2,10.47,0,0-1.67-4.54-2-10.47-4.19-.42-7.32-1.97-7.32-1.97,0,0,3.14-1.55,7.32-1.97.33-5.93,2-10.47,2-10.47,0,0,1.67,4.54,2,10.47,4.19.42,7.32,1.97,7.32,1.97ZM125.35,78.67c-.27-4.78-1.62-8.44-1.62-8.44,0,0-1.35,3.66-1.62,8.44-3.38.34-5.91,1.59-5.91,1.59,0,0,2.53,1.25,5.91,1.59.27,4.78,1.62,8.45,1.62,8.45,0,0,1.35-3.66,1.62-8.45,3.38-.34,5.91-1.59,5.91-1.59,0,0-2.53-1.25-5.91-1.59ZM116.72,45.02c2.79-.29,4.92-1.27,4.92-1.27,0,0-2.13-.99-4.92-1.27-.22-4.01-1.35-7.09-1.35-7.09,0,0-1.13,3.08-1.35,7.09-2.79.29-4.92,1.27-4.92,1.27,0,0,2.13.99,4.92,1.27.22,4.01,1.35,7.09,1.35,7.09,0,0,1.13-3.08,1.35-7.09ZM134.57,128.2c2.48,6.33-.46,13.29-6.69,15.86l-54.67,22.57c-2.38.97-4.87,1.47-7.39,1.47-2.01,0-4-.32-5.92-.94l-25.81-6.98c-.71-.21-1.46-.31-2.37-.31H0v-38.71h12.44c1.23,0,2.39-.23,3.48-.69l18.91-8.1c3.24-1.34,6.65-2.02,10.14-2.02,2.12,0,4.24.26,6.29.76l38.96,9.52c4.37,1.02,7.66,4.3,8.82,8.41l19.53-7.49c1.49-.63,3.07-.95,4.69-.95,4.94,0,9.36,2.94,11.31,7.6ZM129.9,130.03c-1.15-2.74-3.83-4.41-6.64-4.41-.92,0-1.85.18-2.74.55l-20.67,7.93c-.15.44-.22.87-.29,1.31-.95,3.93-3.78,7.13-7.42,8.66-1.52.63-3.1.92-4.71.92-1.01,0-2.04-.12-3.07-.34l-25.47-6.19,1.31-5.31,25.47,6.26c.58.14,1.16.21,1.73.21,3.22,0,6.12-2.17,6.93-5.45.15-.44.22-.95.15-1.38.22-3.35-1.96-6.48-5.39-7.28l-39.01-9.53c-1.68-.41-3.39-.62-5.1-.62-2.8,0-5.6.55-8.22,1.64l-18.85,8.08c-1.75.73-3.57,1.09-5.46,1.09h-7.42v28.67h26.71c1.31,0,2.55.15,3.78.51l25.83,6.99c1.46.49,2.97.73,4.48.73,1.86,0,3.72-.37,5.49-1.09l54.65-22.56c3.71-1.53,5.39-5.68,3.93-9.39ZM165.36,53.57c-.38.97-1.3,1.6-2.34,1.6h-12.54v52.67c0,1.39-1.12,2.51-2.51,2.51h-80.26c-1.39,0-2.51-1.12-2.51-2.51v-52.67h-12.54c-1.04,0-1.96-.64-2.34-1.6-.37-.97-.11-2.06.66-2.76L106.16.65c.95-.87,2.42-.87,3.37,0l10.86,9.87V2.51c0-1.39,1.12-2.51,2.51-2.51h15.05c1.39,0,2.51,1.12,2.51,2.51v26.25l24.26,22.05c.77.7,1.03,1.8.66,2.76ZM156.54,50.16l-20.28-18.44c-.52-.48-.82-1.15-.82-1.86V5.02h-10.03v11.17c0,.99-.59,1.89-1.49,2.29-.9.4-1.97.23-2.7-.44l-13.36-12.15-48.69,44.26h8.56c1.39,0,2.51,1.12,2.51,2.51v52.67h75.24v-52.67c0-1.39,1.12-2.51,2.51-2.51h8.56Z"/>
  </g>
</svg>