<?xml version="1.0" encoding="UTF-8"?>
<svg id="Layer_2" data-name="Layer 2" xmlns="http://www.w3.org/2000/svg" viewBox="0 0 406.72 616.69">
  <defs>
    <style>
      .cls-1 {
        fill: none;
        stroke: #31353f;
        stroke-linecap: round;
        stroke-linejoin: round;
        stroke-width: 12px;
      }
    </style>
  </defs>
  <g id="pattern">
    <g>
      <g>
        <path class="cls-1" d="M203.31,610.69l.05-102.64c.01-27.37-11.66-53.44-32.08-71.67l-59.99-53.53c-10.8-12.02-30.07-11.9-40.66,1.26-8.31,10.33-6.83,25.52,2.03,35.38l46.12,51.3-.2.04-42.8-47.64c-13.69-15.24-21.21-35.04-21.07-55.53l.56-84.97c.09-13.67-10.97-24.8-24.64-24.8h0c-13.61,0-24.64,11.03-24.64,24.64v108.03c0,29.31,9.39,57.84,26.79,81.43l62.95,74.3c5.79,6.84,9,15.49,9.06,24.45l.27,39.95"/>
        <path class="cls-1" d="M203.31,610.69l.05-102.69c.01-27.37,11.7-53.43,32.11-71.65l59.95-53.5c10.8-12.02,30.07-11.9,40.66,1.26,8.31,10.33,6.83,25.52-2.03,35.38l-46.12,51.3.2.04,42.8-47.64c13.69-15.24,21.21-35.04,21.07-55.53l-.56-84.97c-.09-13.67,10.97-24.8,24.64-24.8h0c13.61,0,24.64,11.03,24.64,24.64v108.03c0,29.31-9.39,57.84-26.79,81.43l-62.95,74.3c-5.79,6.84-9,15.49-9.06,24.45l-.27,39.95"/>
      </g>
      <path class="cls-1" d="M300.98,140.02c6.32,0,12.49,1.23,18.04,3.7v-73.41h-73.41c2.47-5.55,3.7-11.72,3.7-18.04,0-25.6-20.67-46.27-46.27-46.27s-46.27,20.67-46.27,46.27c0,6.32,1.23,12.49,3.7,18.04h-72.79v72.79c5.55-2.47,11.72-3.7,18.04-3.7,25.6,0,46.27,20.67,46.27,46.27s-20.67,46.27-46.27,46.27c-6.32,0-12.49-1.23-18.04-3.7v73.41h73.41c-2.47,5.55-3.7,11.72-3.7,18.04,0,25.6,20.67,46.27,46.27,46.27s46.27-20.67,46.27-46.27c0-6.32-1.23-12.49-3.7-18.04h72.79v-72.79c-5.55,2.47-11.72,3.7-18.04,3.7-25.6,0-46.27-20.67-46.27-46.27s20.67-46.27,46.27-46.27ZM246.23,301.64h0s0,0,0,0h0Z"/>
    </g>
  </g>
</svg>