<?xml version="1.0" encoding="UTF-8"?>
<svg id="Layer_2" data-name="Layer 2" xmlns="http://www.w3.org/2000/svg" viewBox="0 0 220.71 194.42">
  <defs>
    <style>
      .cls-1 {
        stroke-width: 0px;
      }
    </style>
  </defs>
  <g id="_Ñëîé_1" data-name="Ñëîé 1">
    <path class="cls-1" d="M51.16,34.56l30.35,58.19c1.05,2.06,2.01,4.21,2.81,6.37h-5.42c-.55-1.4-1.15-2.76-1.86-4.06l-28.54-54.78-10.43,2.21,3.81,17.96c2.16,10.28.5,20.77-4.66,29.49-2.36,3.96-3.71,9.23-4.21,14.2h-4.97c.5-5.92,2.16-12.19,4.87-16.75,4.61-7.78,5.92-17.05,4.06-25.93l-4.87-22.82,19.06-4.06ZM53.37,31.55l-24.53,5.22c-1.35.25-2.66-.6-2.96-1.96l-2.11-9.83c-.25-1.35.6-2.66,1.96-2.96l24.53-5.22c1.35-.3,2.71.6,2.96,1.96l2.11,9.78c.3,1.35-.6,2.71-1.96,3.01ZM32.35,32.15l-1.55-7.37c-.15-.65-.8-1.1-1.5-.95-.55.15-1,.65-1,1.25,0,.05.05.15.05.25l1.55,7.32c.15.7.85,1.15,1.5,1,.7-.15,1.1-.8.95-1.51ZM38.52,30.85l-1.61-7.37c-.1-.65-.8-1.1-1.45-.95-.65.15-1,.65-1,1.3v.2l1.61,7.32c.15.7.8,1.15,1.45,1,.7-.15,1.1-.8,1-1.5ZM44.64,29.54l-1.55-7.37c-.15-.65-.8-1.1-1.51-.95-.6.15-1,.65-1,1.2,0,.1.05.2.05.3l1.56,7.32c.15.7.8,1.15,1.51,1,.65-.15,1.1-.8.95-1.5ZM51.36,28.34l-1.56-7.37c-.15-.65-.8-1.1-1.45-.95-.6.15-1.05.65-1.05,1.25,0,.05.05.15.05.25l1.61,7.32c.1.7.8,1.1,1.45,1,.7-.15,1.1-.85.95-1.5ZM9.63,34.66c3.76-7.62,4.06-14.25,3.51-18.71l-3.86.85-1.86-8.83L43.84.2c.7-.1,1.35-.2,2.01-.2,2.06,0,4.01.7,5.42,1.96l6.97,6.32c1.66,1.55.6,4.16-1.91,4.66l-33.11,7.07c-.35-1.81-1.66-3.21-3.41-3.96-.85,7.62-2.51,13.49-7.72,20.11l-2.46-1.5ZM19.16,10.63c2.66.5,5.02,1.81,6.67,3.66l25.58-5.42-3.51-3.21c-.45-.4-1.2-.65-2.06-.65-.3,0-.65.05-.95.1l-25.73,5.52ZM0,9.55l.71,3.33,2.45-.52.47,2.22-2.45.52.71,3.33,4.91-1.04-1.89-8.87-4.91,1.04ZM56.78,95.21c3.51,0,6.77,1.5,9.08,3.91h6.17c-3.06-5.47-8.88-8.93-15.25-8.93-1.2,0-2.46.1-3.66.35-7.02,1.56-12.19,7.02-13.54,13.59h5.22c1.25-4.26,4.77-7.67,9.38-8.68.85-.15,1.76-.25,2.61-.25ZM181.98,90.39l-19.31-4.77c-.4-.1-.8-.15-1.2-.15-1.81,0-3.46.95-4.36,2.56-2.26,4.06-6.12,10.94-9.08,16.1h5.77c2.66-4.72,5.77-10.18,7.67-13.64l19.31,4.77c.05,2.36.15,5.52.25,8.88h5.02c-.1-3.41-.2-6.62-.25-9.03-.05-2.26-1.61-4.21-3.81-4.72ZM136.59,104.13h5.72l11.39-19.91c2.16-3.76,2.56-8.23,1.05-12.29l-1.5-4.26c-1-2.71.1-5.72,2.51-7.22l14.75-8.93,20.37,5.02,8.93,14.75c1.45,2.46,1,5.62-1.1,7.52l-3.36,3.11c-3.16,2.91-4.92,7.07-4.77,11.39l.4,10.83h5.02l-.4-11.04c-.1-2.81,1.05-5.57,3.16-7.52l3.36-3.06c3.86-3.56,4.72-9.33,1.96-13.84l-9.98-16.55-24.38-5.97-16.55,9.98c-4.46,2.76-6.42,8.28-4.61,13.19l1.5,4.31c1,2.66.75,5.62-.7,8.13l-12.74,22.37ZM194.67,49.71l-24.38-6.02,1.81-7.27c.55-2.31,2.61-3.81,4.87-3.81.4,0,.8.05,1.2.1l14.6,3.61c2.71.65,4.36,3.36,3.66,6.07l-1.76,7.32ZM192.82,41.48c.1-.45-.05-.75-.15-.95-.1-.15-.35-.45-.8-.55l-14.6-3.61h-.3c-.45,0-1.05.3-1.2.95l-.9,3.61,17.05,4.21.9-3.66ZM180.58,22.97l-2.46-.6,7.27-8.53,9.73,2.41,2.46,10.93-2.41-.6-1.81,7.32-14.6-3.61,1.81-7.32ZM183.34,27.54l7.27,1.81,1.81-7.32.2.05-.65-2.71-5.22-1.3-1.81,2.11.15.05-.9,3.66-.85,3.66ZM190.56,129.21h-70.18v5.02h83.52l-15.9,51.62c-.65,2.16-2.61,3.56-4.82,3.56H47.55c-2.21,0-4.16-1.4-4.82-3.56l-15.9-51.62h23.33v-5.02h-30.1l17.91,58.14c1.25,4.21,5.17,7.07,9.58,7.07h135.64c4.41,0,8.33-2.86,9.58-7.07l17.91-58.14h-20.11ZM213.18,109.15h-92.8v5.02h92.8c1.4,0,2.51,1.1,2.51,2.51s-1.1,2.51-2.51,2.51h-92.8v5.02h92.8c4.16,0,7.52-3.36,7.52-7.52s-3.36-7.52-7.52-7.52ZM35.51,124.2h14.65v-5.02H17.56c-1.4,0-2.51-1.1-2.51-2.51s1.1-2.51,2.51-2.51h32.6v-5.02H17.56c-4.16,0-7.52,3.36-7.52,7.52s3.36,7.52,7.52,7.52h17.96ZM79.86,101.63h35.51c1.4,0,2.51,1.1,2.51,2.51v37.62c0,5.52-4.51,10.03-10.03,10.03-1.81,0-3.56-.5-5.02-1.35v1.35c0,5.52-4.51,10.03-10.03,10.03-4.36,0-8.08-2.81-9.48-6.72-1.61,1.1-3.51,1.71-5.57,1.71-5.52,0-10.03-4.51-10.03-10.03v-1.35c-1.45.85-3.21,1.35-5.02,1.35-5.52,0-10.03-4.51-10.03-10.03v-32.6c0-1.4,1.1-2.51,2.51-2.51h24.68ZM81.26,106.64h-23.58v30.1c0,2.76,2.26,5.02,5.02,5.02s5.02-2.26,5.02-5.02v-22.57c0-1.4,1.1-2.51,2.51-2.51h.2c1.3.1,2.31,1.15,2.31,2.51v18.26c.05,0,.15.05.2.1l-.2.05v14.2c0,2.76,2.26,5.02,5.02,5.02s5.02-2.26,5.02-5.02v-32.6c0-.15,0-.3.05-.45v-.05c.25-1.15,1.25-2.01,2.46-2.01,1.4,0,2.51,1.1,2.51,2.51v37.62c0,2.76,2.26,5.02,5.02,5.02s5.02-2.26,5.02-5.02v-37.62c0-1.4,1.1-2.51,2.51-2.51s2.51,1.1,2.51,2.51v27.59c0,2.76,2.26,5.02,5.02,5.02s5.02-2.26,5.02-5.02v-35.11h-31.6ZM135.43,48.96h-50.16c0-14.25,0-19.51,3.01-32.45,1-4.51,5.12-7.67,9.73-7.67h24.68c4.61,0,8.73,3.16,9.73,7.67,3.01,12.94,3.01,18.21,3.01,32.45ZM105.34,22.22c0,.8.25,1.35.45,1.66h9.13c.2-.3.45-.85.45-1.66v-8.38h-10.03v8.38ZM130.42,43.94c-.05-10.48-.35-15.5-2.86-26.28-.5-2.26-2.56-3.81-4.87-3.81h-2.31v8.38c0,3.66-2.26,6.67-5.02,6.67h-10.03c-2.76,0-5.02-3.01-5.02-6.67v-8.38h-2.31c-2.31,0-4.36,1.55-4.82,3.76-2.56,10.83-2.86,15.85-2.91,26.33h40.13ZM110.35,21.37c1.4,0,2.51-1.1,2.51-2.51s-1.1-2.51-2.51-2.51-2.51,1.1-2.51,2.51,1.1,2.51,2.51,2.51ZM90.29,79.05h15.05c2.76,0,5.02,2.26,5.02,5.02v15.05h5.02v-15.05c0-5.52-4.51-10.03-10.03-10.03h-15.05v-15.05h40.13v45.14h5.02v-50.16h-50.16v45.14h5.02v-20.06Z"/>
  </g>
</svg>