<?xml version="1.0" encoding="UTF-8"?>
<svg id="Layer_2" data-name="Layer 2" xmlns="http://www.w3.org/2000/svg" viewBox="0 0 197.08 205.66">
  <defs>
    <style>
      .cls-1 {
        stroke-width: 0px;
      }
    </style>
  </defs>
  <g id="_Ñëîé_1" data-name="Ñëîé 1">
    <path class="cls-1" d="M147.97,114.82c.85.35,1.66.65,2.51.9v79.91H0V60.19h94.2c-.2.15-.3.35-.45.55-.4.6-.65,1.25-.8,1.96-.1.75-.05,1.55.2,2.31,0,.05.05.15.05.2H5.02v125.4h140.45v-76.8c.8.4,1.66.75,2.51,1ZM99.92,77.75c-.6-.85-1.15-1.71-1.71-2.51H15.05v45.14h120.39v-11.49c-.8-.45-1.66-.9-2.51-1.45-.8-.5-1.66-1-2.51-1.55v9.48H20.06v-35.11h81.76c-.65-.85-1.3-1.71-1.91-2.51ZM15.05,135.43h120.39v45.14H15.05v-45.14ZM20.06,175.56h110.35v-35.11H20.06v35.11ZM90.29,95.31v-5.02h-30.1v5.02h30.1ZM60.19,155.5h30.1v-5.02h-30.1v5.02ZM15.05,205.66h15.05v-5.02h-15.05v5.02ZM120.39,205.66h15.05v-5.02h-15.05v5.02ZM169.04,47.95c1.05.9,1.15,2.51.25,3.51l-6.57,7.57c-.5.6-1.2.9-1.91.9-.55,0-1.15-.25-1.61-.65l-11.39-9.88c-1.05-.9-1.15-2.46-.25-3.51l6.57-7.57c.5-.55,1.2-.85,1.91-.85.6,0,1.15.2,1.66.6l11.34,9.88ZM160.57,53.87l3.31-3.76-7.57-6.62-3.31,3.81,7.57,6.57ZM196.33,5.17c-1.05-.9-2.56-.9-4.36,1.2l-28.84,33.11,3.76,3.26,28.84-33.11c.95-1.15,1.35-2.06,1.35-2.86,0-.65-.3-1.2-.75-1.61ZM159.46,62.85c-6.72,17.46-8.53,35.41-6.47,48.46-.85-.25-1.66-.55-2.51-.85-.85-.3-1.71-.65-2.51-1-.85-.35-1.71-.7-2.51-1.05-1.96-.9-3.86-1.86-5.77-2.86l-3.91-2.21c-.1-.05-.25-.15-.35-.2-.85-.55-1.71-1.05-2.51-1.61-.85-.55-1.71-1.1-2.51-1.66-2.61-1.81-5.17-3.71-7.57-5.67-1.25-1-2.51-2.06-3.66-3.11-4.06-3.51-7.77-7.17-10.78-10.83-.35-.4-.7-.75-1-1.15l-1.05-1.35-1.81-2.26c-.05-.1-.1-.15-.15-.25-2.56-3.51-4.56-6.92-5.77-10.03-.25-.6-.45-1.2-.65-1.76,1.81-.2,3.71-.45,5.62-.75,3.86-.6,7.88-1.45,11.99-2.51,9.43-2.36,19.36-5.82,28.69-10.48l15.2,13.14ZM150.48,74.69c.85-3.46,1.86-6.92,3.06-10.33l-3.06-2.66-1.71-1.5-5.27-4.56c-3.56,1.66-7.27,3.21-11.04,4.56-2.41.9-4.87,1.76-7.32,2.51-2.96.95-6.02,1.81-9.03,2.51-3.61.95-7.27,1.71-10.83,2.31.9,1.61,2.01,3.26,3.31,5.02l1.25,1.61c4.36-1.3,9.13-3.11,14.15-5.17-3.11,2.46-6.32,4.51-9.43,6.27-.9.5-1.81,1-2.66,1.45.25.35.55.7.9,1.05.7.85,1.45,1.66,2.26,2.51,2.21,2.36,4.72,4.72,7.37,7.02.1.1.25.2.35.3l7.47-7.32,2.56-2.51,2.56-2.51h.05v.05l-2.51,3.76-2.51,3.76-4.77,7.17c.1.1.2.15.3.25,1.45,1.2,2.96,2.36,4.46,3.41.85.65,1.66,1.25,2.51,1.81.85.6,1.66,1.2,2.51,1.71.75.5,1.5.95,2.26,1.4l5.87-14.65-2.91,16.4c.15.1.35.2.5.3l1,.55c1.1.6,2.21,1.15,3.31,1.66.6.3,1.15.6,1.76.85-.2-4.97.05-10.23.75-15.6.55-4.41,1.4-8.93,2.51-13.39ZM45.14,10.03c2.77,0,5.02-2.25,5.02-5.02s-2.25-5.02-5.02-5.02-5.02,2.25-5.02,5.02,2.25,5.02,5.02,5.02ZM35.11,42.64c0-4.16,3.36-7.52,7.52-7.52s7.52,3.36,7.52,7.52-3.36,7.52-7.52,7.52-7.52-3.36-7.52-7.52ZM40.13,42.64c0,1.4,1.1,2.51,2.51,2.51s2.51-1.1,2.51-2.51-1.1-2.51-2.51-2.51-2.51,1.1-2.51,2.51ZM95.31,35.11c2.77,0,5.02-2.25,5.02-5.02s-2.25-5.02-5.02-5.02-5.02,2.25-5.02,5.02,2.25,5.02,5.02,5.02ZM75.24,45.14c2.08,0,3.76-1.68,3.76-3.76s-1.68-3.76-3.76-3.76-3.76,1.68-3.76,3.76,1.68,3.76,3.76,3.76ZM81.51,12.54c2.08,0,3.76-1.68,3.76-3.76s-1.68-3.76-3.76-3.76-3.76,1.68-3.76,3.76,1.68,3.76,3.76,3.76ZM65.21,30.1c2.77,0,5.02-2.25,5.02-5.02s-2.25-5.02-5.02-5.02-5.02,2.25-5.02,5.02,2.25,5.02,5.02,5.02Z"/>
  </g>
</svg>