<?xml version="1.0" encoding="UTF-8"?>
<svg id="Layer_2" data-name="Layer 2" xmlns="http://www.w3.org/2000/svg" xmlns:xlink="http://www.w3.org/1999/xlink" viewBox="0 0 12 16.82">
  <defs>
    <style>
      .cls-1 {
        fill: url(#New_Gradient_Swatch_copy_21);
      }

      .cls-1, .cls-2, .cls-3, .cls-4, .cls-5, .cls-6, .cls-7 {
        stroke-width: 0px;
      }

      .cls-2 {
        fill: url(#New_Gradient_Swatch_copy_21-2);
      }

      .cls-3 {
        fill: url(#New_Gradient_Swatch_copy_20);
      }

      .cls-4 {
        fill: #fff;
      }

      .cls-5 {
        fill: url(#New_Gradient_Swatch_copy_3);
      }

      .cls-6 {
        fill: url(#New_Gradient_Swatch_copy_19);
      }

      .cls-7 {
        fill: url(#New_Gradient_Swatch_copy_22);
      }
    </style>
    <linearGradient id="New_Gradient_Swatch_copy_21" data-name="New Gradient Swatch copy 21" x1="1.91" y1="14.76" x2="6.03" y2="14.76" gradientUnits="userSpaceOnUse">
      <stop offset="0" stop-color="#5f727a"/>
      <stop offset="1" stop-color="#4c5f68"/>
    </linearGradient>
    <linearGradient id="New_Gradient_Swatch_copy_22" data-name="New Gradient Swatch copy 22" x1=".24" y1="11.76" x2="2.49" y2="11.76" gradientUnits="userSpaceOnUse">
      <stop offset="0" stop-color="#f85265"/>
      <stop offset="1" stop-color="#f74357"/>
    </linearGradient>
    <linearGradient id="New_Gradient_Swatch_copy_3" data-name="New Gradient Swatch copy 3" x1="6.77" y1="16.02" x2="12" y2="16.02" gradientUnits="userSpaceOnUse">
      <stop offset="0" stop-color="#80e0c1"/>
      <stop offset="1" stop-color="#62cba8"/>
    </linearGradient>
    <linearGradient id="New_Gradient_Swatch_copy_20" data-name="New Gradient Swatch copy 20" x1="0" y1="7.62" x2="9.68" y2="7.62" gradientUnits="userSpaceOnUse">
      <stop offset="0" stop-color="#ffd774"/>
      <stop offset="1" stop-color="#f5c951"/>
    </linearGradient>
    <linearGradient id="New_Gradient_Swatch_copy_21-2" data-name="New Gradient Swatch copy 21" x1="3.4" y1="7.79" x2="5.62" y2="7.79" xlink:href="#New_Gradient_Swatch_copy_21"/>
    <linearGradient id="New_Gradient_Swatch_copy_19" data-name="New Gradient Swatch copy 19" x1=".53" y1="11.99" x2="5.62" y2="11.99" gradientUnits="userSpaceOnUse">
      <stop offset="0" stop-color="#39baf4"/>
      <stop offset="1" stop-color="#00a7f2"/>
    </linearGradient>
  </defs>
  <g id="Layer_1-2" data-name="Layer 1">
    <g>
      <path class="cls-1" d="m5.04,13c-.31-.19-.68-.3-1.06-.3-1.13,0-2.06.92-2.06,2.06,0,.14.01.28.04.41.05.23.13.44.24.63h0c.36.61,1.02,1.02,1.77,1.02,1.14,0,2.06-.92,2.06-2.06,0-.46-.16-.9-.42-1.24-.16-.21-.35-.39-.58-.52Z"/>
      <path class="cls-7" d="m.84,14.37l.09-.12.35-.48c.79-1.09,1.21-2.38,1.21-3.73v-1.27c-.15.09-.3.18-.44.29-.02,0-.03.02-.05.04-1.07.81-1.76,2.1-1.76,3.55v1.01c0,.21.03.41.09.61,0,0,0,.02,0,.03.05.16.11.31.2.45l.29-.35.02-.03Z"/>
      <path class="cls-5" d="m10.73,15.24h-2.67c-.7,0-1.28.57-1.28,1.28,0,.16.13.29.29.29h4.65c.16,0,.29-.13.29-.29,0-.71-.57-1.28-1.28-1.28Z"/>
      <path class="cls-3" d="m9.68,5.56c0-.79-.29-1.55-.82-2.14C8.5,3.01,3.81.77,2.38.09c-.01,0-.03-.01-.04-.02C1.53-.17.64.19.23.93-.03,1.4-.07,1.96.12,2.46c.19.5.6.89,1.11,1.06l1.06.35c1.08.36,1.82,1.33,1.89,2.45v.89h.59v-.91c-.09-1.37-.99-2.54-2.29-2.97l-1.06-.35c-.35-.12-.62-.38-.75-.72-.13-.34-.11-.72.07-1.04.28-.5.87-.74,1.42-.58,2.85,1.35,6.01,2.92,6.28,3.18.43.48.67,1.11.67,1.76v9.68h.58V5.56Z"/>
      <path class="cls-2" d="m3.94,7.2c-.3,0-.54.24-.54.54v.63c.19-.06.38-.1.58-.13.23-.04.47-.06.72-.06h.92v-.44c0-.3-.24-.54-.54-.54h-1.13Z"/>
      <path class="cls-6" d="m3.98,8.24c-.2.03-.39.08-.58.13-.32.1-.62.23-.91.39v1.27c0,1.35-.42,2.64-1.21,3.73l-.35.48-.09.12-.02.03-.29.35h0c.34.59.95,1,1.67,1.06-.11-.19-.2-.41-.24-.63-.03-.13-.04-.27-.04-.41,0-1.14.92-2.06,2.06-2.06.39,0,.75.11,1.06.3.22.14.42.31.58.52v-5.34h-.92c-.24,0-.48.02-.72.06Z"/>
      <path class="cls-4" d="m4.32,14.17c-.1-.06-.22-.1-.35-.1-.37,0-.67.3-.67.67,0,.05,0,.09.01.13.02.07.04.14.08.21h0c.12.2.33.33.58.33.37,0,.67-.3.67-.67,0-.15-.05-.29-.14-.4-.05-.07-.12-.13-.19-.17Z"/>
    </g>
  </g>
</svg>