<?xml version="1.0" encoding="UTF-8"?>
<svg id="Layer_2" data-name="Layer 2" xmlns="http://www.w3.org/2000/svg" viewBox="0 0 225.73 160.51">
  <defs>
    <style>
      .cls-1 {
        stroke-width: 0px;
      }
    </style>
  </defs>
  <g id="_Ñëîé_1" data-name="Ñëîé 1">
    <path class="cls-1" d="M224.77,119.03l-10.08-21.37c-1.86-3.86-4.21-7.52-7.07-10.73l-43.84-50.06-22.67,10.68,3.86,8.18c5.97,12.69,8.08,27.14,4.61,40.73-2.76,10.83-1.05,25.53,3.11,34.41l8.58,18.16c1.71,3.61,5.32,5.72,9.08,5.72,1.4,0,2.86-.3,4.26-.95l45.35-21.42c5.02-2.36,7.17-8.33,4.82-13.34ZM217.85,127.86l-45.4,21.42c-.65.3-1.35.45-2.11.45-1.96,0-3.71-1.1-4.56-2.86l-8.58-18.16c-3.86-8.23-5.07-21.87-2.76-31,3.61-14.1,1.86-29.75-4.97-44.14l-1.71-3.61,14.75-6.92,41.33,47.2c2.56,2.86,4.66,6.12,6.27,9.58l10.08,21.37c1.2,2.46.15,5.47-2.36,6.67ZM163.93,31.25l-4.31-9.08c-.55-1.25-2.06-1.76-3.31-1.15l-22.67,10.68c-1.25.6-1.81,2.11-1.2,3.36l4.26,9.03c.6,1.25,2.11,1.81,3.36,1.2l22.67-10.68c1.25-.6,1.81-2.11,1.2-3.36ZM141.81,41.68c-.65.3-1.35.05-1.66-.6l-3.21-6.77c-.1-.2-.15-.4-.15-.55,0-.5.3-.9.75-1.1.6-.3,1.35-.05,1.66.55l3.21,6.82c.3.65,0,1.35-.6,1.66ZM147.47,39.02c-.65.3-1.35.05-1.66-.6l-3.21-6.82c-.1-.15-.15-.35-.15-.55,0-.45.3-.9.75-1.1.6-.3,1.35,0,1.66.6l3.21,6.82c.3.6,0,1.35-.6,1.66ZM153.14,36.37c-.6.3-1.35,0-1.66-.6l-3.21-6.82c-.1-.15-.15-.35-.15-.55,0-.45.3-.9.75-1.1.6-.3,1.35-.05,1.66.6l3.21,6.77c.3.65,0,1.4-.6,1.71ZM158.81,33.66c-.6.3-1.35.05-1.66-.6l-3.21-6.77c-.1-.2-.15-.4-.15-.55,0-.5.3-.95.75-1.15.6-.25,1.35,0,1.66.6l3.21,6.82c.3.6.05,1.35-.6,1.66ZM165.03,14.1c2.96-1.4,3.41-5.07.85-6.57l-10.58-6.22c-1.45-.85-3.16-1.3-4.92-1.3-1.61,0-3.26.35-4.82,1.1l-44.29,20.92,5.17,10.88,3.91-1.86c2.46,5.27,5.32,15.1,1.86,28.39l-.45,1.76,7.12,2.21.7-1.4c5.87-11.54,6.47-19.66,4.97-32,.75.65,1.35,1.45,1.81,2.36l38.67-18.26ZM116.93,58.84l-.65-.2c3.11-13.54.1-23.63-2.51-29.14,1.45-.35,4.06-.65,6.82-.75,1.66,12.19,1.35,19.61-3.66,30.1ZM118.98,22.97c-2.21,0-4.41.5-6.42,1.45l-3.71,1.76-.85-1.81,39.73-18.76c.85-.4,1.76-.6,2.66-.6s1.71.2,2.41.6l8.23,4.82-33.26,15.7c-2.31-2.01-5.42-3.16-8.78-3.16ZM99.03,23.07l5.13,10.86-6.78,3.2-1.92-4.07,3.39-1.6-1.28-2.71-3.39,1.6-1.92-4.07,6.78-3.2ZM197.33,90.34l-13.59,6.42-6.42-13.59-13.59,6.42,6.42,13.59-13.59,6.47,6.42,13.59,13.59-6.42,6.42,13.59,13.59-6.42-6.42-13.59,13.64-6.42-6.47-13.64ZM183.49,108l6.42,13.59-4.51,2.16-6.42-13.59-13.64,6.42-2.11-4.56,13.59-6.42-6.42-13.59,4.51-2.16,6.47,13.64,13.59-6.47,2.11,4.56-13.59,6.42ZM55.18,95.31h5.02v55.18c0,5.52-4.51,10.03-10.03,10.03H10.03c-5.52,0-10.03-4.51-10.03-10.03V30.1c0-5.52,4.51-10.03,10.03-10.03h40.13c5.52,0,10.03,4.51,10.03,10.03v30.1h-5.02v-30.1c0-2.76-2.26-5.02-5.02-5.02H10.03c-2.76,0-5.02,2.26-5.02,5.02v120.39c0,2.76,2.26,5.02,5.02,5.02h40.13c2.76,0,5.02-2.26,5.02-5.02v-55.18ZM87.78,65.21h-50.16c-6.92,0-12.54,5.62-12.54,12.54s5.62,12.54,12.54,12.54h50.16c6.92,0,12.54-5.62,12.54-12.54s-5.62-12.54-12.54-12.54ZM87.78,85.27h-50.16c-4.16,0-7.52-3.36-7.52-7.52s3.36-7.52,7.52-7.52h50.16c4.16,0,7.52,3.36,7.52,7.52s-3.36,7.52-7.52,7.52ZM30.1,140.45c2.76,0,5.02-2.26,5.02-5.02v-11.44c3.01-1.71,5.02-4.92,5.02-8.63,0-5.52-4.51-10.03-10.03-10.03s-10.03,4.51-10.03,10.03c0,3.71,2.01,6.92,5.02,8.63v11.44c0,2.76,2.26,5.02,5.02,5.02ZM23.83,115.37c0-3.46,2.81-6.27,6.27-6.27s6.27,2.81,6.27,6.27c0,2.21-1.15,4.26-3.16,5.37-1.15.7-1.86,1.96-1.86,3.26v11.44c0,.7-.55,1.25-1.25,1.25s-1.25-.55-1.25-1.25v-11.44c0-1.3-.7-2.56-1.86-3.26-2.01-1.1-3.16-3.16-3.16-5.37ZM85.27,35.28c0-1.39,1.12-2.51,2.51-2.51s2.51,1.12,2.51,2.51-1.12,2.51-2.51,2.51-2.51-1.12-2.51-2.51ZM70.23,45.14c0-1.39,1.12-2.51,2.51-2.51s2.51,1.12,2.51,2.51-1.12,2.51-2.51,2.51-2.51-1.12-2.51-2.51ZM65.21,35.11c0-1.39,1.12-2.51,2.51-2.51s2.51,1.12,2.51,2.51-1.12,2.51-2.51,2.51-2.51-1.12-2.51-2.51ZM80.26,55.18c0,1.39-1.12,2.51-2.51,2.51s-2.51-1.12-2.51-2.51,1.12-2.51,2.51-2.51,2.51,1.12,2.51,2.51ZM75.24,35.28c0-1.39,1.12-2.51,2.51-2.51s2.51,1.12,2.51,2.51-1.12,2.51-2.51,2.51-2.51-1.12-2.51-2.51ZM80.26,45.31c0-1.39,1.12-2.51,2.51-2.51s2.51,1.12,2.51,2.51-1.12,2.51-2.51,2.51-2.51-1.12-2.51-2.51Z"/>
  </g>
</svg>