<?xml version="1.0" encoding="UTF-8"?>
<svg id="Layer_2" data-name="Layer 2" xmlns="http://www.w3.org/2000/svg" viewBox="0 0 380 380">
  <defs>
    <style>
      .cls-1 {
        fill: #1d9fd9;
      }

      .cls-1, .cls-2 {
        stroke-width: 0px;
      }

      .cls-2 {
        fill: #3a4284;
      }
    </style>
  </defs>
  <g id="Layer_1-2" data-name="Layer 1">
    <g id="cleaning">
      <g id="Group_3" data-name="Group 3">
        <path id="Vector_14" data-name="Vector 14" class="cls-2" d="m43.87,198.37c11.18,27.77,38.29,46.92,69.58,46.92h17.73c31.29,0,58.4-19.15,69.58-46.92H43.87Z"/>
        <path id="Vector_15" data-name="Vector 15" class="cls-2" d="m136.52,358.77l14.74-44.2c4.27-13.95,17.31-23.63,31.94-23.63h32.55l5-45.31,5.22-47.26h-1.63c-12.13,40.45-49.52,69.19-93.16,69.19h-17.72c-43.65,0-81.03-28.73-93.16-69.19h-1.63l2.74,24.79,16.21,146.92c.62,5.65,5.38,9.92,11.06,9.92h88.16c-2.31-6.46-2.56-13.51-.6-20.34.09-.29.19-.6.28-.89Z"/>
        <path id="Vector_16" data-name="Vector 16" class="cls-1" d="m379.56,365.81l-14.84-44.53c-1.37-4.78-5.73-8.08-10.7-8.08h-170.83c-4.97,0-9.33,3.3-10.7,8.08l-14.84,44.53c-2.04,7.09,3.3,14.19,10.7,14.19h200.51c7.38,0,12.75-7.07,10.7-14.19Z"/>
        <path id="Vector_17" data-name="Vector 17" class="cls-1" d="m279.73,11.13c0-6.14-4.98-11.13-11.13-11.13s-11.14,4.99-11.14,11.13v279.81h22.27V11.13Z"/>
        <path id="Vector_18" data-name="Vector 18" class="cls-1" d="m244.66,164.99v-.02c0-6.15-4.98-11.13-11.12-11.13H11.12c-6.14,0-11.12,4.98-11.12,11.13v.02c0,6.14,4.98,11.12,11.12,11.12h222.42c6.14,0,11.12-4.98,11.12-11.12Z"/>
      </g>
    </g>
  </g>
</svg>