<?xml version="1.0" encoding="UTF-8"?>
<svg id="Layer_2" data-name="Layer 2" xmlns="http://www.w3.org/2000/svg" viewBox="0 0 16.81 16.75">
  <defs>
    <style>
      .cls-1 {
        fill: #eb4d4d;
      }

      .cls-1, .cls-2 {
        stroke-width: 0px;
      }

      .cls-2 {
        fill: #303030;
      }
    </style>
  </defs>
  <g id="Layer_1-2" data-name="Layer 1">
    <g>
      <path class="cls-2" d="m6.6,8.21c-.07,0-.15-.03-.2-.08l-1.93-1.93c-1.11.34-2.33.04-3.16-.79C.43,4.53.15,3.22.57,2.07c.03-.09.11-.16.21-.18.1-.02.2,0,.27.08l1.65,1.65,1.29-1.29-1.65-1.65c-.07-.07-.1-.17-.08-.27.02-.1.09-.17.18-.21,1.16-.43,2.47-.14,3.34.73.83.83,1.13,2.05.79,3.16l1.95,1.95c.11.11.11.29,0,.41-.11.11-.29.11-.41,0l-2.07-2.07c-.08-.08-.11-.2-.07-.3.35-.95.12-2.02-.6-2.73-.6-.6-1.46-.86-2.28-.72l1.5,1.5c.05.05.08.13.08.2s-.03.15-.08.2l-1.7,1.7c-.05.05-.13.08-.2.08h0c-.08,0-.15-.03-.2-.08l-1.5-1.5c-.14.82.12,1.68.72,2.28.71.71,1.78.94,2.73.6.11-.04.22-.01.3.07l2.06,2.06c.11.11.11.3,0,.41-.06.06-.13.08-.2.08Z"/>
      <path class="cls-2" d="m13.65,16.43c-.83,0-1.64-.32-2.24-.93-.83-.83-1.13-2.05-.79-3.16l-2.06-2.06c-.11-.11-.11-.3,0-.41.11-.11.29-.11.41,0l2.19,2.19c.08.08.11.2.07.3-.35.95-.12,2.02.6,2.73.6.6,1.46.86,2.28.72l-1.5-1.5c-.05-.05-.08-.13-.08-.2s.03-.15.08-.2l1.7-1.7c.05-.05.13-.08.2-.08h0c.08,0,.15.03.2.08l1.5,1.5c.14-.82-.12-1.68-.72-2.28-.71-.71-1.78-.95-2.73-.6-.11.04-.22.01-.3-.07l-2.1-2.1c-.11-.11-.11-.3,0-.41.11-.11.29-.11.41,0l1.98,1.98c1.11-.34,2.33-.04,3.16.79.87.87,1.16,2.18.73,3.34-.03.09-.11.16-.21.18-.1.02-.2,0-.27-.08l-1.65-1.65-1.29,1.29,1.65,1.65c.07.07.1.17.08.27-.02.1-.09.17-.18.21-.36.13-.73.2-1.1.2Z"/>
      <g>
        <path class="cls-1" d="m6.55,11.25c-.07,0-.15-.03-.2-.08l-.76-.76c-.11-.11-.11-.29,0-.41l6.39-6.39c-.08-.5.11-1.01.52-1.33L15.2.16c.11-.09.28-.08.38.02l.98.98c.1.1.11.27.02.38l-2.12,2.71c-.32.41-.82.6-1.33.52l-6.39,6.39c-.06.06-.13.08-.2.08Zm-.35-1.05l.35.35,6.3-6.3c.07-.07.18-.1.28-.07.33.1.67-.02.88-.28l1.96-2.5-.62-.62-2.5,1.96c-.27.21-.38.56-.28.88.03.1,0,.21-.07.28l-6.3,6.3Z"/>
        <path class="cls-2" d="m1.34,16.75c-.38,0-.72-.13-.97-.38-.28-.28-.41-.65-.37-1.09.05-.71.52-1.48,1.21-2l3.3-2.46-.02-.02c-.15-.15-.24-.36-.24-.58s.08-.42.24-.58c.32-.32.84-.32,1.15,0l1.45,1.45c.32.32.32.84,0,1.15-.32.32-.84.32-1.15,0l-.02-.02-2.46,3.3c-.52.7-1.28,1.16-2,1.21-.04,0-.09,0-.13,0Zm3.73-6.76c-.06,0-.12.02-.17.07h0s-.07.11-.07.17.02.12.07.17l.26.26c.06.06.09.14.08.22s-.05.16-.12.21l-3.56,2.66c-.56.42-.94,1.03-.98,1.58-.02.27.05.49.21.65.16.16.37.22.65.21.54-.04,1.16-.42,1.58-.98l2.66-3.56c.05-.07.13-.11.21-.12.08,0,.17.02.22.08l.26.26c.09.09.24.09.34,0,.04-.05.07-.1.07-.17s-.02-.12-.07-.17l-1.45-1.45s-.11-.07-.17-.07Zm-.37-.13h0,0Z"/>
      </g>
    </g>
  </g>
</svg>