<?xml version="1.0" encoding="UTF-8"?>
<svg id="Layer_2" data-name="Layer 2" xmlns="http://www.w3.org/2000/svg" viewBox="0 0 616.69 595.05">
  <defs>
    <style>
      .cls-1 {
        fill: none;
        stroke: #31353f;
        stroke-linecap: round;
        stroke-linejoin: round;
        stroke-width: 12px;
      }
    </style>
  </defs>
  <g id="pattern">
    <g>
      <g>
        <path class="cls-1" d="M610.69,368.36v196.18c0,13.54-10.98,24.52-24.52,24.52h-196.18v-66.03c-14.26,9.4-34.23,11.94-52.87,2.61-13.92-6.97-23.91-20.05-27.17-35.27-7.32-34.15,18.46-64.26,51.53-64.26,10.48,0,20.41,3.13,28.51,8.46v-66.21h66.21c-5.33,8.09-8.46,18.02-8.46,28.51,0,33.07,30.11,58.85,64.26,51.53,15.23-3.26,28.3-13.25,35.27-27.17,9.33-18.64,6.79-38.61-2.61-52.87h66.03Z"/>
        <path class="cls-1" d="M610.69,368.36h-66.03c9.4,14.26,11.94,34.23,2.61,52.87-6.97,13.92-20.05,23.91-35.27,27.17-34.15,7.32-64.26-18.46-64.26-51.53,0-10.48,3.13-20.41,8.46-28.51h-66.21v-66.21c8.09,5.33,18.02,8.46,28.51,8.46,33.07,0,58.85-30.11,51.53-64.25-3.26-15.23-13.25-28.3-27.17-35.28-18.64-9.34-38.61-6.79-52.87,2.61v-66.02h196.18c13.54,0,24.52,10.98,24.52,24.52v196.18Z"/>
      </g>
      <g>
        <path class="cls-1" d="M264.5,290.8c13.89,0,25.14-11.26,25.14-25.14s-11.26-25.14-25.14-25.14l-110.61-.04,12.83-77.45c4.17-25.18-15.25-48.08-40.77-48.08-6.49,60.27-32.95,132.07-65.5,154.54v151.36c16,13.4,36.21,20.74,57.08,20.74h118.99c13.89,0,25.14-11.26,25.14-25.14s-11.26-25.14-25.14-25.14h6.88c13.87.64,25.63-10.09,26.27-23.96.63-13.66-9.78-25.21-23.34-26.18,0,0,6.28-.09,7.55-.09,13.89,0,25.63-10.09,26.27-23.96h0c.64-13.87-10.09-25.63-23.96-26.27,0,0,6.77-.04,8.33-.04Z"/>
        <path class="cls-1" d="M6,250.09h39.11c8.47,0,15.35,6.88,15.35,15.35v162.9c0,8.47-6.88,15.35-15.35,15.35H6v-193.6h0Z"/>
        <circle class="cls-1" cx="33.23" cy="406.98" r="7.48"/>
      </g>
      <g>
        <line class="cls-1" x1="306.68" y1="64.33" x2="312.48" y2="6"/>
        <line class="cls-1" x1="265.23" y1="74.05" x2="241.09" y2="20.63"/>
        <line class="cls-1" x1="234.19" y1="103.18" x2="186.58" y2="68.99"/>
        <line class="cls-1" x1="376.57" y1="107.68" x2="429.99" y2="83.54"/>
        <line class="cls-1" x1="347.43" y1="76.64" x2="381.62" y2="29.03"/>
      </g>
    </g>
  </g>
</svg>