<?xml version="1.0" encoding="UTF-8"?>
<svg id="Layer_2" data-name="Layer 2" xmlns="http://www.w3.org/2000/svg" viewBox="0 0 492.75 616.69">
  <defs>
    <style>
      .cls-1 {
        fill: none;
        stroke: #31353f;
        stroke-linecap: round;
        stroke-linejoin: round;
        stroke-width: 12px;
      }
    </style>
  </defs>
  <g id="pattern">
    <g>
      <path class="cls-1" d="M344.03,82.93l-27.28,53.26c7.32.4,14.61,3.25,20.81,7.99,13.05,9.98,17.91,28.36,11.91,43.65-8.37,21.36-32.92,30.3-52.81,20.12-4.63-2.37-8.68-5.58-11.82-9.47l-27.51,53.71-53.71-27.51c5.07-4.09,8.99-9.74,11.39-16.19,6.73-18.09-2.21-39.26-19.7-47.43-18.48-8.64-40.55-1.18-49.92,17.13-2.37,4.63-3.78,9.6-4.05,14.59l-53.26-27.28L161.91,21.35c7.1-13.87,24.1-19.35,37.96-12.25l144.15,73.82Z"/>
      <g>
        <path class="cls-1" d="M18.91,375.59l87.43-117.22c5.01-6.77,14.56-8.2,21.33-3.2l24.01,17.75c6.77,5.01,8.2,14.56,3.2,21.33l-97.13,131.39c-5.01,6.77-14.56,8.2-21.33,3.2l-30.42-22.49"/>
        <path class="cls-1" d="M473.84,376.48l-87.43-117.22c-5.01-6.77-14.56-8.2-21.33-3.2l-24.01,17.75c-6.77,5.01-8.2,14.55-3.2,21.33l97.13,131.39c5.01,6.77,14.56,8.2,21.33,3.2l30.42-22.49"/>
        <line class="cls-1" x1="317.75" y1="413.42" x2="239.57" y2="369.94"/>
        <path class="cls-1" d="M59.99,422.6c19.05,18.37,30.71,34.84,43.61,50.97"/>
        <path class="cls-1" d="M431.9,423.37c-13.39,12.91-23.14,24.89-32.22,36.47"/>
        <g>
          <path class="cls-1" d="M317.75,413.42l78.44,43.97c10.21,5.72,13.85,18.64,8.12,28.85h0c-5.72,10.21-18.64,13.85-28.85,8.12l-78.44-43.97"/>
          <path class="cls-1" d="M297.02,450.39l63.89,35.82c10.21,5.72,13.85,18.64,8.12,28.85h0c-5.72,10.21-18.64,13.85-28.85,8.12l-63.89-35.82"/>
          <path class="cls-1" d="M276.29,487.37l49.76,27.9c10.21,5.72,13.85,18.64,8.12,28.85h0c-5.72,10.21-18.64,13.85-28.85,8.12l-49.76-27.9"/>
          <path class="cls-1" d="M255.56,524.34l33.77,18.93c10.21,5.72,13.85,18.64,8.12,28.85h0c-5.72,10.21-18.64,13.85-28.85,8.12l-23.62-13.24"/>
        </g>
        <path class="cls-1" d="M151.88,301.47l50.64,1.17c5.79.13,11.48,1.53,16.67,4.09l14.07,6.94"/>
        <g>
          <path class="cls-1" d="M182.8,574.96l26.3-27.92c8.03-8.52,21.44-8.92,29.96-.89h0c8.52,8.03,8.92,21.44.89,29.96l-26.3,27.92c-8.03,8.52-21.44,8.92-29.96.89h0c-8.52-8.03-8.92-21.44-.89-29.96Z"/>
          <path class="cls-1" d="M151.94,545.89l40.62-43.12c8.03-8.52,21.44-8.92,29.96-.89h0c8.52,8.03,8.92,21.44.89,29.96l-40.62,43.12c-8.03,8.52-21.44,8.92-29.96.89h0c-8.52-8.03-8.92-21.44-.89-29.96Z"/>
          <path class="cls-1" d="M121.09,516.82l44.18-46.89c8.03-8.52,21.44-8.92,29.96-.89h0c8.52,8.03,8.92,21.44.89,29.96l-44.18,46.89c-8.03,8.52-21.44,8.92-29.96.89h0c-8.52-8.03-8.92-21.44-.89-29.96Z"/>
          <path class="cls-1" d="M90.23,487.76l32.25-34.23c8.03-8.52,21.44-8.92,29.96-.89h0c8.52,8.03,8.92,21.44.89,29.96l-32.25,34.23c-8.03,8.52-21.44,8.92-29.96.89h0c-8.52-8.03-8.92-21.44-.89-29.96Z"/>
        </g>
        <path class="cls-1" d="M239.57,369.94l-27.68,16.01c-19.42,11.23-44.27,4.55-55.44-14.91h0c-3.11-5.42-1.25-12.33,4.17-15.45l98.96-57.02c9.15-5.21,19.83-7.09,30.2-5.3l50.95,8.77"/>
      </g>
    </g>
  </g>
</svg>