<?xml version="1.0" encoding="UTF-8"?>
<svg id="Layer_2" data-name="Layer 2" xmlns="http://www.w3.org/2000/svg" viewBox="0 0 245.73 380">
  <defs>
    <style>
      .cls-1 {
        fill: #1d9fd9;
      }

      .cls-1, .cls-2 {
        stroke-width: 0px;
      }

      .cls-2 {
        fill: #3a4284;
      }
    </style>
  </defs>
  <g id="Layer_1-2" data-name="Layer 1">
    <g id="cleaning_spray_4" data-name="cleaning spray_4">
      <g id="Group_222_2" data-name="Group 222_2">
        <path id="Vector_80" data-name="Vector 80" class="cls-1" d="m245.73,228v31.16c-13.55,0-21.02,5.32-26.47,9.25-4.05,2.91-6.21,4.43-11.53,4.43s-7.6-1.52-11.65-4.43c-5.45-3.93-12.92-9.25-26.47-9.25s-21.03,5.32-26.35,9.25c-4.18,2.91-6.21,4.43-11.65,4.43s-7.48-1.52-11.53-4.43c-5.45-3.93-12.79-9.25-26.47-9.25s-20.9,5.32-26.35,9.25c-4.18,2.91-6.21,4.43-11.53,4.43s-7.47-1.52-11.65-4.43c-5.32-3.93-12.79-9.25-26.35-9.25v-31.16c0-27.99,22.68-50.67,50.67-50.67h126.67c27.99,0,50.66,22.68,50.66,50.67Z"/>
        <path id="Vector_81" data-name="Vector 81" class="cls-2" d="m234.08,288.93c4.18-2.92,6.21-4.44,11.65-4.44v44.84c0,28-22.67,50.67-50.66,50.67h-126.67c-27.99,0-50.67-22.67-50.67-50.67v-44.84c5.45,0,7.48,1.52,11.53,4.44,5.45,3.92,12.79,9.24,26.47,9.24s20.9-5.32,26.35-9.24c4.05-2.92,6.21-4.44,11.53-4.44s7.47,1.52,11.65,4.44c5.32,3.92,12.79,9.24,26.35,9.24s21.02-5.32,26.47-9.24c4.05-2.92,6.08-4.44,11.53-4.44s7.47,1.52,11.65,4.44c5.45,3.92,12.79,9.24,26.47,9.24s20.9-5.32,26.35-9.24Z"/>
        <path id="Union_2" data-name="Union 2" class="cls-2" d="m233.07,76h-63.34v38c7,0,12.67,5.67,12.67,12.67v25.33h-101.33v-25.33c0-7,5.67-12.67,12.66-12.67v-38l-25.33-12.67h-5.12v32.09c0,7-5.67,12.67-12.67,12.67s-12.67-5.67-12.67-12.67v-32.09H0V0h182.4l50.67,76Z"/>
      </g>
    </g>
  </g>
</svg>