<?xml version="1.0" encoding="UTF-8"?>
<svg id="Layer_2" data-name="Layer 2" xmlns="http://www.w3.org/2000/svg" viewBox="0 0 210.68 180.58">
  <defs>
    <style>
      .cls-1 {
        stroke-width: 0px;
      }
    </style>
  </defs>
  <g id="_Ñëîé_1" data-name="Ñëîé 1">
    <path class="cls-1" d="M88.41,60.19s-2.02-5.5-2.42-12.67c-5.07-.5-8.86-2.38-8.86-2.38,0,0,3.8-1.88,8.86-2.38.4-7.17,2.42-12.67,2.42-12.67,0,0,2.02,5.5,2.42,12.67,5.07.5,8.86,2.38,8.86,2.38,0,0-3.8,1.88-8.86,2.38-.4,7.17-2.42,12.67-2.42,12.67ZM108.96,14.52c.33,5.98,2.02,10.56,2.02,10.56,0,0,1.69-4.58,2.02-10.56,4.22-.42,7.39-1.98,7.39-1.98,0,0-3.16-1.56-7.39-1.98-.33-5.98-2.02-10.56-2.02-10.56,0,0-1.69,4.58-2.02,10.56-4.22.42-7.39,1.98-7.39,1.98,0,0,3.16,1.56,7.39,1.98ZM210.68,10.03v140.45h-50.16V10.03h50.16ZM205.66,145.47V48.69l-14.34-14.34,3.55-3.55,10.79,10.79V15.05h-40.13v130.42h40.13ZM160.51,155.5h50.16v25.08h-50.16v-25.08ZM165.53,175.56h40.13v-15.05h-40.13v15.05ZM137.94,120.39h-45.14c-1.38,0-2.51,1.12-2.51,2.51s1.12,2.51,2.51,2.51h45.14c1.39,0,2.51-1.12,2.51-2.51s-1.12-2.51-2.51-2.51ZM140.45,95.31c0,7.72-2.46,14.75-6.42,20.06h-37.32c-3.96-5.32-6.42-12.34-6.42-20.06,0-16.6,11.24-30.1,25.08-30.1s25.08,13.49,25.08,30.1ZM135.43,95.31c0-13.84-8.98-25.08-20.06-25.08s-20.06,11.24-20.06,25.08c0,5.47,1.45,10.68,4.06,15.05h32c2.61-4.36,4.06-9.58,4.06-15.05ZM70.23,50.16v50.16c0,7.17-11.74,13.19-27.44,14.7l2.36,65.56h-20.06l2.36-65.56c-15.7-1.5-27.44-7.52-27.44-14.7v-50.16C0,30.75,15.7,15.05,35.11,15.05s35.11,15.7,35.11,35.11ZM32.4,115.37l-2.11,60.19h9.63l-2.11-60.19h-5.42ZM65.21,100.32H5.02c0,3.56,11.44,10.03,30.1,10.03s30.1-6.47,30.1-10.03ZM30.1,95.31h10.03v-10.03h-10.03v10.03ZM65.21,50.16c0-16.6-13.49-30.1-30.1-30.1S5.02,33.56,5.02,50.16v45.14h20.06v-10.03h-5.02v-5.02h30.1v5.02h-5.02v10.03h20.06v-45.14ZM195.63,40.13c4.92,4.92,4.92,12.84,0,17.76l-2.21,2.16c-.85.9-2.01,1.3-3.11,1.3s-2.26-.4-3.11-1.3l-11.49-11.49c-1.76-1.71-1.76-4.51,0-6.22l2.16-2.21c2.46-2.46,5.67-3.66,8.88-3.66s6.42,1.2,8.88,3.66ZM194.27,49.01c0-2.01-.75-3.91-2.21-5.32-1.4-1.45-3.31-2.21-5.32-2.21s-3.91.75-5.32,2.21l-1.76,1.76,10.63,10.63,1.76-1.76c1.45-1.4,2.21-3.31,2.21-5.32ZM20.06,47.65c.64,0,1.28-.24,1.77-.73l10.03-10.03c.98-.98.98-2.57,0-3.55s-2.57-.98-3.55,0l-10.03,10.03c-.98.98-.98,2.57,0,3.55.49.49,1.13.73,1.77.73ZM43.37,33.34l-25.08,25.08c-.98.98-.98,2.57,0,3.55.49.49,1.13.73,1.77.73s1.28-.24,1.77-.73l25.08-25.08c.98-.98.98-2.57,0-3.55-.98-.98-2.57-.98-3.55,0ZM138.54,127.91c1.2,3.21,1.91,6.72,1.91,10.43,0,11.84-6.97,21.87-16.7,25.63l1.66,16.6h-20.06l1.66-16.6c-9.73-3.76-16.7-13.79-16.7-25.63,0-3.71.7-7.22,1.91-10.43h46.35ZM123.2,158.71c7.22-3.36,12.24-11.19,12.24-20.37,0-1.86-.2-3.66-.6-5.42h-38.92c-.4,1.76-.6,3.56-.6,5.42,0,9.18,5.02,17,12.24,20.37,2.41,1.15,5.07,1.81,7.83,1.81s5.42-.65,7.83-1.81ZM118.83,165.23c-1.1.2-2.31.3-3.46.3s-2.36-.1-3.46-.3l-1.05,10.33h9.03l-1.05-10.33Z"/>
  </g>
</svg>