<?xml version="1.0" encoding="UTF-8"?>
<svg id="Layer_2" data-name="Layer 2" xmlns="http://www.w3.org/2000/svg" viewBox="0 0 220.41 190.61">
  <defs>
    <style>
      .cls-1 {
        stroke-width: 0px;
      }
    </style>
  </defs>
  <g id="_Ñëîé_1" data-name="Ñëîé 1">
    <path class="cls-1" d="M204.36,42.14h5.97v-12.04h-51.62c-3.76,0-7.27,1.65-9.18,4.36l-7.27,10.13c-1.81,2.46.35,5.57,3.76,5.57h45.09c0-.45.05-.85.15-1.25,3.26,10.38,7.27,19.26,17.51,27.64.35.3.75.45,1.2.45s.95-.2,1.3-.55l2.86-2.76c.7-.65.75-1.76.15-2.51-9.83-12.39-10.23-24.28-9.93-29.04ZM187.2,45.14h-39.18l5.57-7.77c1-1.35,3.01-2.26,5.12-2.26h46.6v2.01h-4.61c-6.07,0-11.29,3.31-13.49,8.03ZM209.87,72.58c-8.63-7.52-12.19-15.2-15.95-27.79.25-.3.5-.6.85-.9,1.6-1.1,3.66-1.76,5.82-1.76-.35,5.47.25,17.36,9.73,30.05l-.45.4ZM193.62,122.64c6.62,7.17,11.14,19.96,11.14,28.79v25.63c0,4.72-3.81,8.53-8.53,8.53h-21.02c0-.5-.05-1-.2-1.45l-1.05-3.56h22.27c1.91,0,3.51-1.61,3.51-3.51v-25.63c0-7.12-3.76-18.81-9.78-25.38-7.47-8.13-11.59-18.86-11.59-30.25v-20.57h-12.54l-15.5,55.78h-5.17l16.85-60.79h21.37v25.58c0,9.88,3.56,19.56,10.23,26.84ZM185.24,67.72c1.4,0,2.51-1.1,2.51-2.51v-10.03c0-1.4-1.1-2.51-2.51-2.51h-25.08c-1.4,0-2.51,1.1-2.51,2.51v10.03c0,1.4,1.1,2.51,2.51,2.51h25.08ZM180.83,56.43c0-.7.6-1.25,1.25-1.25h.05c.65,0,1.2.55,1.2,1.25v7.52c0,.7-.55,1.25-1.2,1.25h-.05c-.65,0-1.25-.55-1.25-1.25v-7.52ZM174.61,56.43c0-.7.55-1.25,1.2-1.25h.05c.65,0,1.25.55,1.25,1.25v7.52c0,.7-.6,1.25-1.25,1.25h-.05c-.65,0-1.2-.55-1.2-1.25v-7.52ZM168.29,56.43c0-.7.6-1.25,1.25-1.25h.05c.65,0,1.2.55,1.2,1.25v7.52c0,.7-.55,1.25-1.2,1.25h-.05c-.65,0-1.25-.55-1.25-1.25v-7.52ZM162.07,56.43c0-.7.55-1.25,1.2-1.25h.05c.65,0,1.25.55,1.25,1.25v7.52c0,.7-.6,1.25-1.25,1.25h-.05c-.65,0-1.2-.55-1.2-1.25v-7.52ZM216.62,34.7v3.07h3.79v4.6h-7.58v-12.27h7.58v4.6h-3.79ZM195.28,170.55h-24.33l-1.51-5.02h20.82v-17.56c0-9.68-7.88-17.56-17.56-17.56-3.51,0-6.82,1.05-9.58,2.91-1.66-1.05-3.51-1.76-5.52-2.06,3.96-3.66,9.28-5.87,15.1-5.87,12.49,0,22.57,10.08,22.57,22.57v22.57ZM8.43,115.37v-5.02c0-2.76,2.26-5.02,5.02-5.02h80.26c2.76,0,5.02,2.26,5.02,5.02v5.02c0,3.91-2.26,7.32-5.57,8.98l-1,6.67h-5.12l1.66-10.63c2.76,0,5.02-2.26,5.02-5.02v-5.02H13.44v5.02c0,2.76,2.26,5.02,5.02,5.02h45.14l-44.54,4.06,3.76,24.23c-2.26-1.96-4.26-4.21-6.12-6.62v-.05l-2.56-16.8c-.05-.25-.1-.55-.1-.8-3.31-1.66-5.62-5.07-5.62-9.03ZM60.85,188.6c.95,1.25,2.41,2.01,4.01,2.01h-27.74c-7.52,0-13.74-5.37-14.9-12.74l-2.91-19.11c1.81,1.45,3.71,2.71,5.67,3.91l2.21,14.4c.75,4.92,4.97,8.53,9.93,8.53h22.72c0,1.05.35,2.11,1,3.01ZM24.48,159.41c-2.01-1.3-3.96-2.76-5.77-4.31C7.27,145.27,0,130.72,0,114.47c0-1.4,1.1-2.51,2.51-2.51h4.16v5.02h-1.61c.6,11.54,5.22,21.97,12.39,30,1.86,2.01,3.81,3.86,5.92,5.57,8.28,6.52,18.76,10.48,30.2,10.48,4.66,0,9.13-.65,13.39-1.91l-1.71,5.62c-3.76.85-7.67,1.3-11.69,1.3-10.73,0-20.72-3.16-29.09-8.63ZM99.22,131.02c1.61-4.41,2.61-9.13,2.86-14.04h-1.61v-5.02h4.16c.1,0,.25,0,.35.05v18.41c0,.2.1.4.15.6h-5.92ZM97.36,135.43h-17.46c-5.52,0-10.03,4.51-10.03,10.03v10.03h95.31v-10.03c0-3.96-2.31-7.37-5.67-9.03-1.3-.65-2.81-1-4.36-1h-57.79ZM103.23,140.45h51.92c.55,0,1.1.1,1.61.3,1.96.65,3.41,2.51,3.41,4.72v5.02h-85.27v-5.02c0-2.76,2.26-5.02,5.02-5.02h23.32ZM168.69,180.58l1.5,5.02h-105.34l5.27-17.56.85-2.91h.05l1.35-4.61h6.37l-.45,1.45-1,3.26-4.77,15.35h18.71l3.66-12.24.4,12.24h16.6l3.06-14.65,2.96,14.65h22.37v-13.04l.35.8,5.52,12.24h16.35l-3.11-10.03-1.55-5.02-1.55-5.02h6.37l1.5,5.02,1.5,5.02,3.01,10.03ZM125.05,7.52c0-4.16-3.36-7.52-7.52-7.52s-7.52,3.36-7.52,7.52v122.89h15.05V7.52ZM120.04,125.4h-5.02V7.52c0-1.4,1.1-2.51,2.51-2.51s2.51,1.1,2.51,2.51v117.88Z"/>
  </g>
</svg>