<?xml version="1.0" encoding="UTF-8"?>
<svg id="Layer_2" data-name="Layer 2" xmlns="http://www.w3.org/2000/svg" viewBox="0 0 180.58 190.61">
  <defs>
    <style>
      .cls-1 {
        stroke-width: 0px;
      }
    </style>
  </defs>
  <g id="_Ñëîé_1" data-name="Ñëîé 1">
    <path class="cls-1" d="M82.92,80.26s1.32,3.59,1.58,8.27c3.31.33,5.79,1.55,5.79,1.55,0,0-2.48,1.23-5.79,1.55-.26,4.68-1.58,8.27-1.58,8.27,0,0-1.32-3.59-1.58-8.27-3.31-.33-5.79-1.55-5.79-1.55,0,0,2.48-1.23,5.79-1.55.26-4.68,1.58-8.27,1.58-8.27ZM126.03,72.73s-1.92-.89-4.43-1.15c-.19-3.61-1.21-6.38-1.21-6.38,0,0-1.02,2.77-1.21,6.38-2.51.26-4.43,1.15-4.43,1.15,0,0,1.92.89,4.43,1.15.19,3.61,1.21,6.38,1.21,6.38,0,0,1.02-2.77,1.21-6.38,2.51-.26,4.43-1.15,4.43-1.15ZM137.28,93.94c2.51-.26,4.43-1.15,4.43-1.15,0,0-1.92-.89-4.43-1.15-.19-3.61-1.21-6.38-1.21-6.38,0,0-1.02,2.77-1.21,6.38-2.51.26-4.43,1.15-4.43,1.15,0,0,1.92.89,4.43,1.15.19,3.61,1.21,6.38,1.21,6.38,0,0,1.02-2.77,1.21-6.38ZM60.19,135.43h60.19v55.18h-60.19v-55.18ZM65.21,185.6h50.16v-45.14h-50.16v45.14ZM125.4,110.35h55.18v80.26h-55.18v-80.26ZM130.42,185.6h45.14v-70.23h-45.14v70.23ZM0,0h55.18v60.19H0V0ZM5.02,55.18h45.14V5.02H5.02v50.16ZM180.58,0v60.19h-55.18V0h55.18ZM175.56,5.02h-45.14v50.16h45.14V5.02ZM60.19,110.35h60.19v20.06h-60.19v-20.06ZM65.21,125.4h50.16v-10.03h-50.16v10.03ZM115.37,40.13h-50.16l10.03-15.05V0h30.1v25.08l10.03,15.05ZM74.58,35.11h31.42l-4.83-7.25-.84-1.26V5.02h-20.06v21.58l-.84,1.26-4.83,7.25ZM115.37,60.19h-50.16v-15.05h50.16v15.05ZM110.35,50.16h-40.13v5.02h40.13v-5.02ZM20.06,50.16h15.05v-5.02h-15.05v5.02ZM160.51,45.14h-15.05v5.02h15.05v-5.02ZM45.14,125.4h-5.02v20.06h5.02v-20.06ZM135.43,145.47h5.02v-20.06h-5.02v20.06ZM70.23,145.47h40.13v35.11h-40.13v-35.11ZM75.24,175.56h30.1v-25.08h-30.1v25.08ZM80.26,160.51h20.06v-5.02h-20.06v5.02ZM12.54,110.35h42.64v80.26H0v-80.26h7.52v-10.03h-2.51v2.51H0v-10.03h5.02v2.51h2.51v-15.05c0-6.91,5.62-12.54,12.54-12.54s12.54,5.63,12.54,12.54v5.02h-5.02v-5.02c0-4.15-3.38-7.52-7.52-7.52s-7.52,3.38-7.52,7.52v15.05h2.51v-2.51h5.02v10.03h-5.02v-2.51h-2.51v10.03ZM5.02,115.37v70.23h45.14v-70.23H5.02ZM90.29,117.88c-1.39,0-2.51,1.12-2.51,2.51s1.12,2.51,2.51,2.51,2.51-1.12,2.51-2.51-1.12-2.51-2.51-2.51ZM77.75,117.88c-1.39,0-2.51,1.12-2.51,2.51s1.12,2.51,2.51,2.51,2.51-1.12,2.51-2.51-1.12-2.51-2.51-2.51ZM102.83,117.88c-1.39,0-2.51,1.12-2.51,2.51s1.12,2.51,2.51,2.51,2.51-1.12,2.51-2.51-1.12-2.51-2.51-2.51Z"/>
  </g>
</svg>