<?xml version="1.0" encoding="UTF-8"?>
<svg id="Layer_2" data-name="Layer 2" xmlns="http://www.w3.org/2000/svg" viewBox="0 0 123 78.18">
  <defs>
    <style>
      .cls-1 {
        fill: #0f0f0f;
        stroke-width: 0px;
      }
    </style>
  </defs>
  <g id="Layer_1-2" data-name="Layer 1">
    <g id="NewGroupe3">
      <g id="NewGroup0-20">
        <g>
          <path class="cls-1" d="M103.94,30.94c-.28-.66-.94-1.1-1.66-1.1h-12.13v-11.32h16.89s4.25,14.8,4.36,15.05h-6.35l-1.12-2.64h0ZM100.29,54.36c5.59,0,10.13,4.54,10.13,10.13-.51,13.42-19.75,13.42-20.26,0,0-5.59,4.54-10.13,10.13-10.13h0ZM21.95,74.62c-5.59,0-10.13-4.54-10.13-10.13.51-13.42,19.75-13.42,20.26,0,0,5.59-4.54,10.13-10.13,10.13h0ZM3.6,67.16v-3.86h4.66c-.11,1.29-.04,2.58.21,3.86H3.6ZM121.2,48.17c1,0,1.8-.81,1.8-1.8v-6.73c0-3.67-2.74-5.76-6.09-6.06-1.07-.02-2.03-.74-2.32-1.78l-5.7-19.95c-.74-2.59-3.13-4.39-5.82-4.39h-21.11V1.8c0-.99-.81-1.8-1.8-1.8H31.85c-.99,0-1.8.81-1.8,1.8s.81,1.8,1.8,1.8h46.51v56.09h-43.54c-4.43-11.85-21.32-11.84-25.74,0h-1.74V3.6h16.66c1,0,1.8-.81,1.8-1.8s-.81-1.8-1.8-1.8H5.53c-1,0-1.8.81-1.8,1.8v57.9h-1.93c-1,0-1.8.81-1.8,1.8v7.46c0,1,.81,1.8,1.8,1.8h7.93c5,9.89,19.44,9.88,24.43,0h23.41c.99,0,1.8-.81,1.8-1.8s-.81-1.8-1.8-1.8h-22.15c.25-1.28.32-2.57.21-3.86h42.72v3.86h-12.93c-.99,0-1.8.81-1.8,1.8s.81,1.8,1.8,1.8h22.64c5,9.89,19.44,9.88,24.43,0h4.44c3.34,0,6.06-2.72,6.06-6.06v-10.49c0-.99-.81-1.8-1.8-1.8s-1.8.81-1.8,1.8v10.49c0,1.35-1.1,2.45-2.45,2.45h-3.18c1.74-8.34-4.93-16.5-13.47-16.4-8.54-.1-15.21,8.06-13.47,16.4h-4.85V11.07h21.11c1.09,0,2.06.73,2.36,1.78l.59,2.08h-17.66c-.99,0-1.8.81-1.8,1.8v14.92c0,1,.81,1.8,1.8,1.8h12.74l1.12,2.64c.28.66.94,1.1,1.66,1.1h13.01c1.26.01,2.52,1.17,2.52,2.45v6.73c0,.99.81,1.8,1.8,1.8h0Z"/>
          <path class="cls-1" d="M100.29,61.67c1.56,0,2.82,1.27,2.82,2.82-.14,3.74-5.5,3.74-5.64,0,0-1.56,1.27-2.82,2.82-2.82h0ZM100.29,70.92c3.54,0,6.43-2.88,6.43-6.42-.32-8.51-12.53-8.51-12.85,0,0,3.54,2.88,6.42,6.42,6.42h0Z"/>
          <path class="cls-1" d="M88.35,37.31c-2.39.08-2.38,3.52,0,3.6h6.73c2.39-.08,2.38-3.52,0-3.6h-6.73Z"/>
          <path class="cls-1" d="M21.95,67.31c-1.56,0-2.82-1.27-2.82-2.82.14-3.74,5.5-3.74,5.64,0,0,1.56-1.27,2.82-2.82,2.82h0ZM21.95,58.07c-3.54,0-6.43,2.88-6.43,6.43.32,8.51,12.53,8.51,12.85,0,0-3.54-2.88-6.43-6.42-6.43h0Z"/>
          <path class="cls-1" d="M27.92,18.96l9.39,7.04v15.02h-3.86v-9.39c0-1-.81-1.8-1.8-1.8h-7.46c-1,0-1.8.81-1.8,1.8v9.39h-3.86v-15.02l9.39-7.04h0ZM25.99,41.02v-7.59h3.86v7.59h-3.86ZM11.91,26.46c-.8.6-.96,1.73-.36,2.52.93,1.23,2.55.59,3.37-.28v12.32h-1.93c-2.38.08-2.39,3.52,0,3.6h29.85c2.38-.08,2.39-3.52,0-3.6h-1.93v-12.32c.82.87,2.44,1.51,3.37.28.6-.8.44-1.93-.36-2.52l-14.92-11.19c-.64-.48-1.52-.48-2.16,0l-14.92,11.19h0Z"/>
          <path class="cls-1" d="M52.11,33.56v-3.86h9.39c.99,0,1.8-.81,1.8-1.8v-3.08l6.84,6.87-6.84,6.82v-3.15c0-1-.81-1.8-1.8-1.8h-9.39ZM62.77,44.12l11.19-11.16c.71-.85.71-1.7,0-2.55l-11.19-11.23c-1.44-1.45-3.08-.49-3.08,1.27v5.64h-9.39c-1,0-1.8.81-1.8,1.8v7.46c0,.99.81,1.8,1.8,1.8h9.39v5.68c0,2.28,1.8,2.48,3.07,1.28h0Z"/>
        </g>
      </g>
    </g>
  </g>
</svg>