<?xml version="1.0" encoding="UTF-8"?>
<svg id="Layer_2" data-name="Layer 2" xmlns="http://www.w3.org/2000/svg" viewBox="0 0 116.64 170.55">
  <defs>
    <style>
      .cls-1 {
        stroke-width: 0px;
      }
    </style>
  </defs>
  <g id="_Ñëîé_1" data-name="Ñëîé 1">
    <path class="cls-1" d="M107.58,61.6c.1,0,.25-.05.35-.05l-8.63,99.47c-.5,5.42-4.82,9.53-10.03,9.53H27.37c-5.22,0-9.53-4.11-10.03-9.53L8.71,61.55c.1,0,.25.05.35.05,1.61.25,3.21.45,4.77.65l8.53,98.32c.25,2.86,2.41,4.97,5.02,4.97h61.9c2.61,0,4.77-2.11,5.02-4.97l8.53-98.32c1.55-.2,3.16-.4,4.77-.65ZM108.38,56.23c-.5.2-1,.3-1.55.4-16.15,2.36-32.35,3.56-48.51,3.56s-32.35-1.2-48.51-3.56c-.55-.1-1.05-.2-1.55-.4C2.69,54.68-.87,49.16.18,43.39L6.66,8.23C7.51,3.46,11.67,0,16.54,0h83.57c4.87,0,9.03,3.46,9.88,8.23l6.47,35.16c1.05,5.77-2.51,11.29-8.08,12.84ZM111.49,44.29l-6.42-35.16c-.45-2.41-2.51-4.11-4.97-4.11H16.54c-2.46,0-4.51,1.71-4.97,4.11l-6.42,35.16c-.3,1.66.05,3.36,1.05,4.77,1.05,1.45,2.56,2.36,4.31,2.61,15.85,2.31,31.95,3.51,47.8,3.51s31.95-1.2,47.8-3.51c1.76-.25,3.26-1.15,4.31-2.61,1-1.4,1.35-3.11,1.05-4.77ZM99.35,14.8l4.01,24.33c.5,2.96-1.4,5.87-4.36,6.52-13.54,3.01-27.14,4.51-40.68,4.51s-27.14-1.5-40.68-4.51c-2.96-.65-4.87-3.56-4.36-6.52l4.01-24.33c.5-2.76,2.86-4.77,5.67-4.77h70.73c2.81,0,5.17,2.01,5.67,4.77ZM98.45,39.93l-4.06-24.28c-.05-.35-.35-.6-.7-.6H22.96c-.35,0-.65.25-.7.6l-4.06,24.28c-.05.35.2.75.55.85,13.14,2.91,26.43,4.36,39.58,4.36s26.43-1.45,39.58-4.36c.35-.1.6-.5.55-.85ZM58.32,42.59c8.33,0,15.05-3.36,15.05-7.47h-30.1c0,4.11,6.72,7.47,15.05,7.47ZM32.27,126.86l3.43-.8c4.14,8.77,12.84,14.39,22.62,14.39s18.2-5.34,22.47-13.93l-4.5-2.23c-3.41,6.88-10.3,11.15-17.98,11.15s-14.14-4.09-17.62-10.55l3.26-.76-8.21-8.76-3.48,11.49ZM80.89,115.37l3.48-11.49-3.43.8c-4.14-8.77-12.84-14.39-22.62-14.39s-17.96,5.2-22.29,13.58l4.46,2.3c3.46-6.7,10.3-10.86,17.84-10.86s14.14,4.09,17.62,10.55l-3.26.76,8.21,8.76Z"/>
  </g>
</svg>