<?xml version="1.0" encoding="UTF-8"?>
<svg id="Layer_2" data-name="Layer 2" xmlns="http://www.w3.org/2000/svg" viewBox="0 0 335.3 380">
  <defs>
    <style>
      .cls-1 {
        fill: #1d9fd9;
      }

      .cls-1, .cls-2 {
        stroke-width: 0px;
      }

      .cls-2 {
        fill: #3a4284;
      }
    </style>
  </defs>
  <g id="Layer_1-2" data-name="Layer 1">
    <g id="cleaning_spray_3" data-name="cleaning spray_3">
      <g id="XMLID_5" data-name="XMLID 5">
        <path id="XMLID_6" data-name="XMLID 6" class="cls-1" d="m268.23,0h22.36v22.35h-22.36V0Z"/>
        <path id="XMLID_7" data-name="XMLID 7" class="cls-1" d="m268.23,44.7h22.36v22.35h-22.36v-22.35Z"/>
        <path id="XMLID_8" data-name="XMLID 8" class="cls-1" d="m312.95,0h22.35v22.35h-22.35V0Z"/>
        <path id="XMLID_9" data-name="XMLID 9" class="cls-1" d="m312.95,44.7h22.35v22.35h-22.35v-22.35Z"/>
        <path id="XMLID_10" data-name="XMLID 10" class="cls-1" d="m223.53,22.35h22.35v22.35h-22.35v-22.35Z"/>
        <path id="XMLID_11" data-name="XMLID 11" class="cls-1" d="m113.36,131.15H0v36.5h134.22l-20.86-36.5Z"/>
        <path id="XMLID_12" data-name="XMLID 12" class="cls-2" d="m22.35,108.8h78.24v-41.74h22.35c0,30.81,25.07,55.88,55.88,55.88v-22.35c-18.48,0-33.53-15.04-33.53-33.53h33.53v-22.35h22.36v-22.35h-22.36V0H0v67.06h22.35v41.74Z"/>
        <path id="XMLID_13" data-name="XMLID 13" class="cls-2" d="m178.82,335.29H44.71v-33.53H0v78.23h223.53v-78.23h-44.71v33.53Z"/>
        <path id="XMLID_14" data-name="XMLID 14" class="cls-2" d="m0,190v89.41h44.71v-33.53h134.11v33.53h44.71v-75.49l-48.73-13.92H0Z"/>
        <path id="XMLID_15" data-name="XMLID 15" class="cls-1" d="m67.06,268.23h89.41v44.71h-89.41v-44.71Z"/>
      </g>
    </g>
  </g>
</svg>