<?xml version="1.0" encoding="UTF-8"?>
<svg id="Layer_2" data-name="Layer 2" xmlns="http://www.w3.org/2000/svg" viewBox="0 0 380 351.63">
  <defs>
    <style>
      .cls-1 {
        fill: #1d9fd9;
      }

      .cls-1, .cls-2 {
        stroke-width: 0px;
      }

      .cls-2 {
        fill: #3a4284;
      }
    </style>
  </defs>
  <g id="Layer_1-2" data-name="Layer 1">
    <g id="detergent_2" data-name="detergent 2">
      <g id="Group_50" data-name="Group 50">
        <path id="Vector_115" data-name="Vector 115" class="cls-1" d="m136.88,190.69h111.33v71.88h-111.33v-71.88Z"/>
        <path id="Vector_116" data-name="Vector 116" class="cls-2" d="m368.87,190.69h-98.39v102.1c0,6.14-4.99,11.13-11.14,11.13s-11.13-4.99-11.13-11.13v-7.96h-22.27v7.96c0,6.14-4.98,11.13-11.13,11.13s-11.13-4.99-11.13-11.13v-7.96h-22.27v7.96c0,6.14-4.98,11.13-11.13,11.13s-11.13-4.99-11.13-11.13v-7.96h-22.27v7.96c0,6.14-4.99,11.13-11.13,11.13s-11.13-4.99-11.13-11.13v-102.1H11.13c-6.14,0-11.13,4.98-11.13,11.13s4.99,11.13,11.13,11.13h9.55l27.81,129.88c1.1,5.13,5.64,8.8,10.89,8.8h261.24c5.25,0,9.79-3.67,10.89-8.8l27.81-129.88h9.55c6.14,0,11.13-4.99,11.13-11.13s-4.99-11.13-11.13-11.13Z"/>
        <path id="Vector_117" data-name="Vector 117" class="cls-1" d="m241.61,132.97c2.96,11.54,5.02,23.4,6.16,35.45h76.1l8.25-19.57c7.94-18.84-.93-40.63-19.79-48.59-45.96-19.35-41.65-17.54-43.1-18.14-15.2-6.41-32.33-1.87-42.55,10.02,6.23,12.78,11.21,26.38,14.87,40.58.02.09.04.17.06.25Z"/>
        <path id="Vector_118" data-name="Vector 118" class="cls-1" d="m328.26,83.31l6.82-16.19c2.39-5.66-.27-12.19-5.94-14.57l-36.98-15.41c-5.66-2.38-12.19.28-14.57,5.94l-6.81,16.16c3.19.75,6.33,1.77,9.4,3.06,41.93,17.48,42.19,17.24,48.08,21.01Z"/>
        <path id="Vector_119" data-name="Vector 119" class="cls-1" d="m62.5,49.4h29l-16.18,17.31c-4.2,4.5-3.97,11.54.52,15.74,4.49,4.2,11.54,3.96,15.74-.53,18.2-19.47,16.95-18.05,17.69-19.12l9.05,12c2.74,3.64,7.03,5.77,11.58,5.77h41.06c16.51,0,29.9-13.41,29.9-29.91v-10.08c0-7.93-3.15-15.54-8.76-21.15l-10.66-10.67c-5.61-5.61-13.22-8.76-21.15-8.76H62.5c-5.07,0-9.18,4.11-9.18,9.18v31.04c0,5.07,4.11,9.18,9.18,9.18Z"/>
        <path id="Vector_120" data-name="Vector 120" class="cls-1" d="m129.89,102.84c-8.94,0-17.57-3.32-24.22-9.13-12.54,22.57-20.59,48.15-23.5,74.71h143.22c-1.06-10.17-2.85-20.18-5.35-29.94-.03-.07-.04-.14-.06-.21-4.19-16.3-10.26-31.55-18.1-45.55-8.81,6.5-19.58,10.12-30.92,10.12h-41.07Z"/>
      </g>
    </g>
  </g>
</svg>