<?xml version="1.0" encoding="UTF-8"?>
<svg id="Layer_2" data-name="Layer 2" xmlns="http://www.w3.org/2000/svg" viewBox="0 0 12.02 16.84">
  <defs>
    <style>
      .cls-1 {
        fill: #eb4d4d;
      }

      .cls-1, .cls-2 {
        stroke-width: 0px;
      }

      .cls-2 {
        fill: #303030;
      }
    </style>
  </defs>
  <g id="Layer_1-2" data-name="Layer 1">
    <g>
      <g>
        <path class="cls-2" d="m3.98,16.84c-1.14,0-2.06-.92-2.06-2.06s.92-2.06,2.06-2.06,2.06.92,2.06,2.06-.92,2.06-2.06,2.06Zm0-3.54c-.82,0-1.48.66-1.48,1.48s.66,1.48,1.48,1.48,1.48-.66,1.48-1.48-.66-1.48-1.48-1.48Z"/>
        <path class="cls-2" d="m2.31,15.83s0,0-.01,0c-1.15-.06-2.06-1.01-2.06-2.16v-1.01c0-2.46,2-4.47,4.47-4.47h.63c.16,0,.29.13.29.29v5.06c0,.16-.13.29-.29.29s-.29-.13-.29-.29v-4.77h-.34c-2.14,0-3.89,1.74-3.89,3.89v1.01c0,.85.66,1.54,1.51,1.58.16,0,.28.14.27.3,0,.15-.14.28-.29.28Z"/>
        <path class="cls-2" d="m.6,14.5c-.06,0-.12-.02-.17-.06-.13-.09-.16-.28-.06-.4l.44-.61c.72-.99,1.1-2.16,1.1-3.39v-.73c0-.16.13-.29.29-.29s.29.13.29.29v.73c0,1.35-.42,2.64-1.21,3.73l-.44.61c-.06.08-.14.12-.23.12Z"/>
      </g>
      <path class="cls-1" d="m9.4,15.69c-.16,0-.29-.13-.29-.29V5.57c0-.65-.24-1.27-.67-1.76-.3-.29-4.01-2.1-6.29-3.18-.55-.16-1.14.08-1.42.58-.18.32-.2.7-.07,1.04.13.34.41.6.76.72l1.06.35c1.31.44,2.2,1.6,2.29,2.98v1.17c.01.16-.12.29-.28.29h0c-.16,0-.29-.13-.29-.29v-1.15c-.08-1.12-.82-2.09-1.9-2.45l-1.06-.35c-.51-.17-.92-.56-1.11-1.06S-.03,1.4.23.93C.64.19,1.53-.17,2.34.08c.01,0,.03,0,.04.02,1.43.68,6.12,2.92,6.49,3.33.53.59.82,1.35.82,2.14v9.83c0,.16-.13.29-.29.29Z"/>
    </g>
    <path class="cls-2" d="m3.69,8.89c-.16,0-.29-.13-.29-.29v-.85c0-.3.24-.54.54-.54h1.13c.3,0,.54.24.54.54v.73c0,.16-.13.29-.29.29s-.29-.13-.29-.29v-.69h-1.06v.81c0,.16-.13.29-.29.29Z"/>
    <path class="cls-2" d="m11.73,16.83h-4.66c-.16,0-.29-.13-.29-.29,0-.71.57-1.28,1.28-1.28h2.67c.71,0,1.28.57,1.28,1.28,0,.16-.13.29-.29.29Zm-4.3-.58h3.95c-.11-.24-.35-.41-.64-.41h-2.67c-.28,0-.53.17-.64.41Z"/>
  </g>
</svg>