<?xml version="1.0" encoding="UTF-8"?>
<svg id="Layer_2" data-name="Layer 2" xmlns="http://www.w3.org/2000/svg" xmlns:xlink="http://www.w3.org/1999/xlink" viewBox="0 0 16.96 16.96">
  <defs>
    <style>
      .cls-1 {
        fill: url(#linear-gradient);
      }

      .cls-1, .cls-2 {
        stroke-width: 0px;
      }

      .cls-2 {
        fill: url(#New_Gradient_Swatch_4);
      }
    </style>
    <linearGradient id="New_Gradient_Swatch_4" data-name="New Gradient Swatch 4" x1="0" y1="13.43" x2="7.07" y2="13.43" gradientUnits="userSpaceOnUse">
      <stop offset="0" stop-color="#f5f5f5"/>
      <stop offset="1" stop-color="#ededed"/>
    </linearGradient>
    <linearGradient id="linear-gradient" x1="4.37" y1="6.29" x2="16.96" y2="6.29" gradientUnits="userSpaceOnUse">
      <stop offset="0" stop-color="#80e0c1"/>
      <stop offset="1" stop-color="#62cba8"/>
    </linearGradient>
  </defs>
  <g id="Layer_1-2" data-name="Layer 1">
    <g>
      <path class="cls-2" d="m6.98,14.36c-1.51,1.51-3.42,2.37-5.68,2.55l-.53.04s-.04,0-.06,0c-.19,0-.37-.08-.5-.21-.15-.15-.22-.35-.21-.56l.04-.53c.18-2.25,1.04-4.17,2.55-5.68.11-.11.3-.11.41,0l1.36,1.37.41.41.43.43,1.77,1.77c.11.11.11.3,0,.41Z"/>
      <path class="cls-1" d="m16.87,3.35L13.61.09c-.11-.11-.3-.11-.41,0l-.19.19c-.68.68-.71,1.79-.06,2.5L4.37,11.34l.41.41.43.43.41.41L14.19,4.01c.34.31.78.46,1.21.46.46,0,.93-.18,1.28-.53l.19-.19c.11-.11.11-.3,0-.41Zm-2.34.19l-1.11-1.11c-.47-.48-.48-1.25-.02-1.73l2.86,2.86c-.48.46-1.25.46-1.73-.02Z"/>
    </g>
  </g>
</svg>