<?xml version="1.0" encoding="UTF-8"?>
<svg id="Layer_2" data-name="Layer 2" xmlns="http://www.w3.org/2000/svg" viewBox="0 0 205.66 200.64">
  <defs>
    <style>
      .cls-1 {
        stroke-width: 0px;
      }
    </style>
  </defs>
  <g id="_Ñëîé_1" data-name="Ñëîé 1">
    <path class="cls-1" d="M48.91,37.62s3.8-1.88,8.86-2.38c.4-7.17,2.42-12.67,2.42-12.67,0,0,2.02,5.5,2.42,12.67,5.07.5,8.86,2.38,8.86,2.38,0,0-3.8,1.88-8.86,2.38-.4,7.17-2.42,12.67-2.42,12.67,0,0-2.02-5.5-2.42-12.67-5.07-.5-8.86-2.38-8.86-2.38ZM146.22,95.31l.75,5.02h53.67v5.02h-52.97l.7,5.02h57.28v-15.05h-59.44ZM83.07,105.34H5.02v-5.02h78.75l.75-5.02H0v15.05h82.36l.7-5.02ZM175.56,115.37h15.05v85.27h-15.05v-85.27ZM180.58,195.63h5.02v-75.24h-5.02v75.24ZM15.05,115.37h55.18v85.27H15.05v-85.27ZM20.06,195.63h45.14v-75.24H20.06v75.24ZM190.61,20.06v45.14h-48.66l.7,5.02h52.97V15.05h-46.4c0,1.45-.8,2.76-2.11,3.36-.1.1-1.81.9-4.41,1.66h47.9ZM115.37,20.06h10.28c-2.61-.75-4.31-1.56-4.41-1.66-1.3-.6-2.11-1.91-2.11-3.36h-8.78v35.11h5.02v-30.1ZM145.47,75.24h20.06l5.02,15.05h-25.03l-1.5-10.68,1.45-4.36ZM147.42,85.27h16.15l-1.66-5.02h-12.84l-1.66,5.02ZM125.4,40.13h15.05v15.05h-2.06c-2.56-3.06-6.42-5.02-10.63-5.02h-2.36v-10.03ZM130.42,50.16h5.02v-5.02h-5.02v5.02ZM160.51,35.11v20.06h-15.05v-20.06h15.05ZM155.5,40.13h-5.02v10.03h5.02v-10.03ZM180.58,30.1v25.08h-15.05v-25.08h15.05ZM175.56,35.11h-5.02v15.05h5.02v-15.05ZM30.1,130.42h25.08v-5.02h-25.08v5.02ZM30.1,155.5h25.08v-5.02h-25.08v5.02ZM30.1,180.58h25.08v-5.02h-25.08v5.02ZM86.63,115.92l.8-5.57.7-5.02.7-5.02.75-5.02,4.62-32.5c.65-4.36,4.36-7.62,8.78-7.62h24.78c4.41,0,8.13,3.26,8.78,7.62l.35,2.41.7,5.02,2.86,20.06.7,5.02.75,5.02.7,5.02.7,5.02.8,5.57c.7,5.02-3.16,9.48-8.23,9.48h-41.03c-5.07,0-8.93-4.46-8.23-9.48ZM92.5,110.35l-.9,6.27c-.2,1.3.4,2.21.8,2.61.35.45,1.15,1.15,2.46,1.15h41.03c1.3,0,2.11-.7,2.46-1.15.4-.4,1-1.3.8-2.61l-.9-6.27-.7-5.02-.7-5.02-.75-5.02-3.56-25.08-.7-5.02-.25-1.71c-.3-1.91-1.91-3.31-3.81-3.31h-24.78c-1.91,0-3.51,1.4-3.81,3.31l-4.51,31.8-.75,5.02-.7,5.02-.7,5.02ZM138.74,185.75c-1.3,1.1-2.26,2.61-2.81,4.31l-14.3-4.72c-1.1-.9-2.36-1.56-3.76-1.91-.8-.25-1.66-.35-2.51-.35s-1.71.1-2.51.35c-1.4.35-2.66,1-3.76,1.91l-14.3,4.72c-.55-1.71-1.5-3.21-2.81-4.31l20.87-6.97v-23.27c-1.39,0-2.51-1.12-2.51-2.51v-7.52h-27.59c-1.4,0-2.51-1.1-2.51-2.51v-2.51c0-5.52,4.51-10.03,10.03-10.03h50.16c5.52,0,10.03,4.51,10.03,10.03v2.51c0,1.4-1.1,2.51-2.51,2.51h-27.59v7.52c0,1.39-1.12,2.51-2.51,2.51v23.27l20.87,6.97ZM110.35,140.45h35.11c0-2.76-2.26-5.02-5.02-5.02h-50.16c-2.76,0-5.02,2.26-5.02,5.02h25.08ZM92.4,190.86c.3.7.4,1.45.4,2.26,0,4.16-3.36,7.52-7.52,7.52s-7.52-3.36-7.52-7.52,3.36-7.52,7.52-7.52c1.4,0,2.76.4,3.86,1.1,1.55.9,2.76,2.41,3.26,4.16ZM87.78,193.12c0-.25-.05-.5-.1-.7-.3-1.05-1.25-1.81-2.41-1.81-.9,0-1.71.45-2.16,1.2-.2.35-.35.8-.35,1.3,0,1.4,1.1,2.51,2.51,2.51s2.51-1.1,2.51-2.51ZM122.89,193.12c0,4.16-3.36,7.52-7.52,7.52s-7.52-3.36-7.52-7.52c0-3.26,2.11-6.07,5.02-7.07.8-.3,1.61-.45,2.51-.45s1.71.15,2.51.45c2.91,1,5.02,3.81,5.02,7.07ZM117.88,193.12c0-1.4-1.1-2.51-2.51-2.51s-2.51,1.1-2.51,2.51,1.1,2.51,2.51,2.51,2.51-1.1,2.51-2.51ZM152.99,193.12c0,4.16-3.36,7.52-7.52,7.52s-7.52-3.36-7.52-7.52c0-.8.1-1.56.4-2.26.5-1.76,1.71-3.26,3.26-4.16,1.1-.7,2.46-1.1,3.86-1.1,4.16,0,7.52,3.36,7.52,7.52ZM147.97,193.12c0-.5-.15-.95-.35-1.3-.45-.75-1.25-1.2-2.16-1.2-1.15,0-2.11.75-2.41,1.81-.05.2-.1.45-.1.7,0,1.4,1.1,2.51,2.51,2.51s2.51-1.1,2.51-2.51ZM131.97,20.06c.7,5.82,2.21,10.03,2.21,10.03,0,0,1.5-4.21,2.21-10.03.05-.85.15-1.76.2-2.66,5.07-.5,8.88-2.36,8.88-2.36,0,0-3.81-1.86-8.88-2.36-.4-7.17-2.41-12.69-2.41-12.69,0,0-2.01,5.52-2.41,12.69-5.07.5-8.88,2.36-8.88,2.36,0,0,3.81,1.86,8.88,2.36.05.9.15,1.81.2,2.66Z"/>
  </g>
</svg>