<?xml version="1.0" encoding="UTF-8"?>
<svg id="Layer_2" data-name="Layer 2" xmlns="http://www.w3.org/2000/svg" viewBox="0 0 174.3 178.82">
  <defs>
    <style>
      .cls-1 {
        stroke-width: 0px;
      }
    </style>
  </defs>
  <g id="_Ñëîé_1" data-name="Ñëîé 1">
    <path class="cls-1" d="M141.2,21.02c4.26.4,7.42,1.96,7.42,1.96,0,0-3.16,1.61-7.42,2.01-.3,5.97-2.01,10.53-2.01,10.53,0,0-1.71-4.56-2.01-10.53-4.26-.4-7.42-2.01-7.42-2.01,0,0,3.16-1.55,7.42-1.96.3-5.97,2.01-10.58,2.01-10.58,0,0,1.71,4.61,2.01,10.58ZM154.24,50.16s1.35-3.56,1.61-8.23c3.31-.35,5.77-1.61,5.77-1.61,0,0-2.46-1.2-5.77-1.55-.25-4.66-1.61-8.28-1.61-8.28,0,0-1.35,3.61-1.61,8.28-3.31.35-5.77,1.55-5.77,1.55,0,0,2.46,1.25,5.77,1.61.25,4.66,1.61,8.23,1.61,8.23ZM121.54,58.49c-1.4.65-2.96,1.4-4.66,2.26-3.21,1.61-5.17,2.26-6.52,2.26-1.5,0-3.41-1.05-6.82-3.26-.85-.55-1.71-1-2.61-1.4l-3.16,4.11c1.05.4,2.06.9,3.01,1.5,4.11,2.66,6.62,4.06,9.58,4.06,2.36,0,4.92-.9,8.78-2.81,12.99-6.47,17.81-6.82,13.14-18.06-3.51-8.48-7.02-4.61-14.4-9.43-6.67-4.36-8.63-20.06-15.25-20.06-.75,0-1.55.2-2.46.6-6.72,3.36-11.04,8.68-13.69,15.05.3-.1.6-.15.9-.2,1.61-.3,3.21-.3,4.77-.05,2.41-4.66,5.82-8.08,10.28-10.28h.05c1.1.95,2.81,4.51,3.81,6.67,2.16,4.56,4.61,9.73,8.83,12.49,3.56,2.31,6.42,3.01,8.53,3.56,2.56.65,2.81.7,4.01,3.56,1.76,4.36,1.3,5.17,1.25,5.17-.7,1.05-3.96,2.61-7.37,4.26ZM174.3,0v150.48h-99.52v-5.02h94.5V5.02h-100.32v49.81l3.66-.8,9.13-11.94c.75-1.05,1.66-1.91,2.71-2.56,1.1-.75,2.41-1.25,3.76-1.51.6-.1,1.25-.15,1.86-.15,2.06.05,4.01.7,5.67,1.86,2.76,1.96,4.21,5.07,4.21,8.18,0,2.01-.6,4.06-1.86,5.82l-2.26,2.96-3.36,4.41-4.26,5.62c-2.46,3.46-6.07,5.82-10.23,6.67l-1.61.3-7.42,1.66-5.02,1.15-4.21.95v30.05l4.21,11.54,4.61,12.64c.15.45.3.85.4,1.3.55,1.81.8,3.66.8,5.52v28.44c0,3.31-1.45,6.47-3.96,8.63-2.56,2.11-5.87,3.06-9.23,2.51-5.32-.85-9.38-5.87-9.38-11.59v-27.59l-4.87-13.29.15,12.14c.05.9-.05,1.81-.2,2.66l-5.42,29.19c-.6,3.26-2.61,6.07-5.47,7.72-1.71,1-3.66,1.5-5.62,1.5-1.3,0-2.61-.25-3.86-.7-5.12-1.81-8.23-7.47-7.17-13.09l5.22-28.14-.35-26.54-14.95-10.63c-4.97-3.56-6.17-10.48-2.61-15.45l14.15-20.01c2.91-4.11,7.62-6.57,12.64-6.57h27.54l7.57-1.71V0h110.35ZM74.63,58.74l-5.67,1.25-5.02,1.15-6.77,1.5c-.2.05-.35.05-.55.05h-27.79c-3.41,0-6.57,1.66-8.58,4.41l-14.15,20.06c-1.91,2.71-1.25,6.52,1.45,8.43l16,11.39c.65.45,1.05,1.2,1.05,2.01l.3,28.34-5.22,28.59c-.6,3.26,1.05,6.47,3.86,7.47,1.81.65,3.71.5,5.32-.45,1.61-.9,2.71-2.46,3.06-4.26l5.37-29.19c.1-.55.15-1.15.15-1.71l-.3-26.84c0-1.2.85-2.26,2.06-2.46,1.2-.25,2.41.45,2.81,1.61l10.03,27.49c.1.25.15.55.15.85v28.04c0,3.31,2.21,6.17,5.22,6.62,1.86.35,3.66-.15,5.12-1.4,1.4-1.15,2.21-2.91,2.21-4.77v-28.44c0-1.66-.25-3.26-.8-4.77-.05-.1-.05-.2-.1-.3l-8.98-24.63c-.1-.3-.15-.6-.15-.85v-32.5c0-1.2.8-2.21,1.96-2.46l7.27-1.61,5.02-1.1,8.08-1.81c2.86-.6,5.37-2.26,7.07-4.61l1.1-1.61,1.91-2.51,3.31-4.26,3.66-4.72c1.5-2.16,1-5.32-1.25-6.92-1.1-.8-2.46-1.1-3.76-.85-.1,0-.2.05-.3.1-1.2.2-2.26.95-2.96,1.96l-2.91,3.81-6.82,8.93c-.35.5-.9.8-1.45.95ZM68.97,118.13v-37.62l-4.21.95v25.13l4.21,11.54ZM22.92,82.61c-1.05-.35-2.16,0-2.81.9l-3.36,4.46c-.8,1.05-.65,2.51.3,3.36l3.36,3.06c.5.4,1.1.65,1.71.65.35,0,.7-.1,1-.25.9-.4,1.5-1.3,1.5-2.26v-7.52c0-1.1-.7-2.06-1.71-2.41ZM110.85,92.05l20.06-20.06c1-.95,1-2.56,0-3.51-.95-1-2.56-1-3.51,0l-20.06,20.06c-1,.95-1,2.56,0,3.51.45.5,1.1.75,1.76.75s1.3-.25,1.76-.75ZM145.96,73.49c-.95-1-2.56-1-3.51,0l-40.13,40.13c-1,.95-1,2.56,0,3.51.45.5,1.1.75,1.76.75s1.3-.25,1.76-.75l40.13-40.13c1-.95,1-2.56,0-3.51ZM129.31,106.54l-20.06,20.06c-1,1-1,2.56,0,3.56.5.5,1.1.75,1.76.75s1.3-.25,1.81-.75l20.06-20.06c.95-1,.95-2.56,0-3.56-1-.95-2.61-.95-3.56,0ZM23.82,40.13c0-8.33,6.72-15.05,15.05-15.05s15.05,6.72,15.05,15.05c0,5.27-2.66,9.83-6.72,12.54-2.41,1.56-5.27,2.51-8.33,2.51s-5.92-.95-8.33-2.51c-4.06-2.71-6.72-7.27-6.72-12.54ZM28.84,40.13c0,5.52,4.51,10.03,10.03,10.03s10.03-4.51,10.03-10.03-4.51-10.03-10.03-10.03-10.03,4.51-10.03,10.03Z"/>
  </g>
</svg>