<?xml version="1.0" encoding="UTF-8"?>
<svg id="Layer_2" data-name="Layer 2" xmlns="http://www.w3.org/2000/svg" viewBox="0 0 148.91 193.12">
  <defs>
    <style>
      .cls-1 {
        stroke-width: 0px;
      }
    </style>
  </defs>
  <g id="_Ñëîé_1" data-name="Ñëîé 1">
    <path class="cls-1" d="M67.37,27.59h7.88v-15.05H21.37c-3.91,0-7.57,2.06-9.58,5.42l-7.62,12.69c-1.81,3.06.4,6.97,3.96,6.97h47.05c0-1.2.2-2.41.65-3.46,3.21,10.03,7.17,18.21,16.95,26.28.35.3.8.45,1.2.45.45,0,.95-.2,1.3-.55l2.86-2.71c.7-.7.75-1.76.15-2.56-9.88-12.44-10.93-23.43-10.93-27.49ZM8.88,32.6l7.22-12.04c1.1-1.86,3.11-3.01,5.27-3.01h48.86v5.02h-5.02c-6.52,0-12.14,4.21-14.2,10.03H8.88ZM73.94,56.48c-8.28-7.27-11.84-14.55-15.45-26.28,1.35-1.25,3.11-2.16,5.07-2.46,0,4.77,1.2,15.7,10.73,28.34l-.35.4ZM50.16,87.73v-30.05h-25.08L2.51,138.95c-1.66,5.97-2.51,12.19-2.51,18.41v25.73c0,5.52,4.51,10.03,10.03,10.03h55.18c5.52,0,10.03-4.51,10.03-10.03v-30.1c0-10.33-5.27-25.33-13.04-33.76-7.88-8.58-12.04-19.86-12.04-31.5ZM70.23,183.09c0,2.76-2.26,5.02-5.02,5.02H10.03c-2.76,0-5.02-2.26-5.02-5.02v-25.73c0-5.77.8-11.54,2.31-17.05L28.89,62.7h16.25v25.03c0,13.14,4.77,25.53,13.34,34.91,7.27,7.83,11.74,21.87,11.74,30.35v30.1ZM50.16,55.18c1.4,0,2.51-1.1,2.51-2.51v-10.03c0-1.4-1.1-2.51-2.51-2.51h-25.08c-1.4,0-2.51,1.1-2.51,2.51v10.03c0,1.4,1.1,2.51,2.51,2.51h25.08ZM45.75,43.89c0-.7.6-1.25,1.25-1.25h.05c.65,0,1.2.55,1.2,1.25v7.52c0,.7-.55,1.25-1.2,1.25h-.05c-.65,0-1.25-.55-1.25-1.25v-7.52ZM39.53,43.89c0-.7.55-1.25,1.2-1.25h.05c.65,0,1.25.55,1.25,1.25v7.52c0,.7-.6,1.25-1.25,1.25h-.05c-.65,0-1.2-.55-1.2-1.25v-7.52ZM33.21,43.89c0-.7.6-1.25,1.25-1.25h.05c.65,0,1.2.55,1.2,1.25v7.52c0,.7-.55,1.25-1.2,1.25h-.05c-.65,0-1.25-.55-1.25-1.25v-7.52ZM26.99,43.89c0-.7.55-1.25,1.2-1.25h.05c.65,0,1.25.55,1.25,1.25v7.52c0,.7-.6,1.25-1.25,1.25h-.05c-.65,0-1.2-.55-1.2-1.25v-7.52ZM77.75,12.54h10.03v5.64h-5.02v3.76h5.02v5.64h-10.03v-15.05ZM37.62,122.89c-12.49,0-22.57,10.08-22.57,22.57v32.6h45.14v-32.6c0-12.49-10.08-22.57-22.57-22.57ZM55.18,158.01h-30.1v5.02h30.1v10.03H20.06v-20.06h30.1v-5.02h-30.1v-2.51c0-9.68,7.88-17.56,17.56-17.56s17.56,7.88,17.56,17.56v12.54ZM105.34,10.03c-4.16,0-7.52,3.36-7.52,7.52s3.36,7.52,7.52,7.52,7.52-3.36,7.52-7.52-3.36-7.52-7.52-7.52ZM105.34,20.06c-1.4,0-2.51-1.1-2.51-2.51s1.1-2.51,2.51-2.51,2.51,1.1,2.51,2.51-1.1,2.51-2.51,2.51ZM141.38,3.76c0,2.08-1.68,3.76-3.76,3.76s-3.76-1.68-3.76-3.76,1.68-3.76,3.76-3.76,3.76,1.68,3.76,3.76ZM148.91,27.59c0,2.08-1.68,3.76-3.76,3.76s-3.76-1.68-3.76-3.76,1.68-3.76,3.76-3.76,3.76,1.68,3.76,3.76ZM124.15,29.7c-4.16,0-7.52,3.36-7.52,7.52s3.36,7.52,7.52,7.52,7.52-3.36,7.52-7.52-3.36-7.52-7.52-7.52ZM124.15,39.73c-1.4,0-2.51-1.15-2.51-2.51s1.1-2.51,2.51-2.51,2.51,1.1,2.51,2.51-1.1,2.51-2.51,2.51ZM121.64,17.56c0-2.08,1.68-3.76,3.76-3.76s3.76,1.68,3.76,3.76-1.68,3.76-3.76,3.76-3.76-1.68-3.76-3.76Z"/>
  </g>
</svg>