<?xml version="1.0" encoding="UTF-8"?>
<svg id="Layer_2" data-name="Layer 2" xmlns="http://www.w3.org/2000/svg" viewBox="0 0 180.61 190.6">
  <defs>
    <style>
      .cls-1 {
        stroke-width: 0px;
      }
    </style>
  </defs>
  <g id="_Ñëîé_1" data-name="Ñëîé 1">
    <path class="cls-1" d="M110.63,21.31L11.32,120.62l14.19,14.19L124.82,35.5l-14.19-14.19ZM18.41,120.62L110.63,28.4l7.09,7.09L25.51,127.72l-7.09-7.09ZM108.23,17.9L8.91,117.21l-2.94-2.94c-1.96-1.96-1.96-5.13,0-7.09L98.2,14.96c1.96-1.96,5.13-1.96,7.09,0l2.94,2.94ZM5.69,100.81l-5.69-5.69L85.13,9.99l5.69,5.69L5.69,100.81ZM97.56,79.18l-5.32-5.32-28.38,28.38,5.32,5.32c2.94,2.94,6.79,4.41,10.64,4.41s7.7-1.47,10.64-4.41l7.09-7.09c5.88-5.88,5.88-15.4,0-21.28ZM94.02,96.92l-7.09,7.09c-1.89,1.89-4.41,2.94-7.09,2.94s-5.2-1.04-7.09-2.94l-1.77-1.77,21.28-21.28,1.77,1.77c3.91,3.91,3.91,10.28,0,14.19ZM88.85,93.52c1.47,1.47,1.47,3.85,0,5.32-1.47,1.47-3.85,1.47-5.32,0-1.47-1.47-1.47-3.85,0-5.32s3.85-1.47,5.32,0ZM121.43,126.25l-5.18,5.18-21.28-21.28,5.18-5.18,21.28,21.28ZM179.14,174.95l-46.11-46.11c-.98-.98-2.26-1.47-3.55-1.47s-2.57.49-3.55,1.47l-7.09,7.09c-1.96,1.96-1.96,5.13,0,7.09l46.11,46.11c.98.98,2.26,1.47,3.55,1.47s2.57-.49,3.55-1.47l7.09-7.09c1.96-1.96,1.96-5.13,0-7.09ZM168.5,185.59l-46.11-46.11,7.09-7.09s0,0,0,0l46.11,46.11-7.09,7.09ZM12.71,45.24c.12,0,.23,0,.35,0,4.52-.14,6.74-2.25,9.1-4.47,3.24-3.06,7.67-7.25,21.97-9.84,1.11-.2,1.95-1.12,2.05-2.25.1-1.12-.56-2.18-1.62-2.57C12.35,14.07,4.58,31.32,4.26,32.06c-1.36,3.2-1.1,6.68.7,9.31,1.69,2.47,4.49,3.87,7.74,3.87ZM8.88,34.02c1.33-3.12,5.99-7.13,15.36-7.13,2.87,0,6.17.37,9.96,1.26-8.98,2.81-12.77,6.39-15.48,8.96-2.13,2.01-3.2,3.02-5.81,3.1-1.68.04-3.02-.54-3.8-1.68-.83-1.21-.92-2.9-.23-4.52ZM23.31,4.58c-2.14-6.03,15.17-10.34,25.65,15.68-10.07-13.18-23.49-9.63-25.65-15.68Z"/>
  </g>
</svg>