<?xml version="1.0" encoding="UTF-8"?>
<svg id="Layer_2" data-name="Layer 2" xmlns="http://www.w3.org/2000/svg" xmlns:xlink="http://www.w3.org/1999/xlink" viewBox="0 0 13.89 16.71">
  <defs>
    <style>
      .cls-1 {
        fill: url(#New_Gradient_Swatch_copy_21);
      }

      .cls-1, .cls-2, .cls-3, .cls-4, .cls-5, .cls-6, .cls-7, .cls-8, .cls-9 {
        stroke-width: 0px;
      }

      .cls-2 {
        fill: url(#New_Gradient_Swatch_copy_21-3);
      }

      .cls-3 {
        fill: url(#New_Gradient_Swatch_copy_21-2);
      }

      .cls-4 {
        fill: url(#New_Gradient_Swatch_4-3);
      }

      .cls-5 {
        fill: url(#New_Gradient_Swatch_4);
      }

      .cls-6 {
        fill: url(#New_Gradient_Swatch_4-2);
      }

      .cls-7 {
        fill: #fff;
      }

      .cls-8 {
        fill: url(#New_Gradient_Swatch_4-4);
      }

      .cls-9 {
        fill: url(#New_Gradient_Swatch_copy_19);
      }
    </style>
    <linearGradient id="New_Gradient_Swatch_4" data-name="New Gradient Swatch 4" x1="0" y1="8.36" x2="13.89" y2="8.36" gradientUnits="userSpaceOnUse">
      <stop offset="0" stop-color="#f5f5f5"/>
      <stop offset="1" stop-color="#ededed"/>
    </linearGradient>
    <linearGradient id="New_Gradient_Swatch_copy_21" data-name="New Gradient Swatch copy 21" x1=".09" y1="3.41" x2="13.87" y2="3.41" gradientUnits="userSpaceOnUse">
      <stop offset="0" stop-color="#5f727a"/>
      <stop offset="1" stop-color="#4c5f68"/>
    </linearGradient>
    <linearGradient id="New_Gradient_Swatch_copy_21-2" data-name="New Gradient Swatch copy 21" x1="1.34" y1="1.85" x2="3.18" y2="1.85" xlink:href="#New_Gradient_Swatch_copy_21"/>
    <linearGradient id="New_Gradient_Swatch_4-2" data-name="New Gradient Swatch 4" x1="2.12" y1="10.11" x2="11.77" y2="10.11" xlink:href="#New_Gradient_Swatch_4"/>
    <linearGradient id="New_Gradient_Swatch_4-3" data-name="New Gradient Swatch 4" x1="10.32" y1="10.11" x2="10.57" y2="10.11" xlink:href="#New_Gradient_Swatch_4"/>
    <linearGradient id="New_Gradient_Swatch_copy_21-3" data-name="New Gradient Swatch copy 21" x1="2.12" y1="10.11" x2="11.77" y2="10.11" xlink:href="#New_Gradient_Swatch_copy_21"/>
    <linearGradient id="New_Gradient_Swatch_copy_19" data-name="New Gradient Swatch copy 19" x1="2.7" y1="10.11" x2="9.67" y2="10.11" gradientUnits="userSpaceOnUse">
      <stop offset="0" stop-color="#39baf4"/>
      <stop offset="1" stop-color="#00a7f2"/>
    </linearGradient>
    <linearGradient id="New_Gradient_Swatch_4-4" data-name="New Gradient Swatch 4" x1="10.15" y1="10.1" x2="10.32" y2="10.1" xlink:href="#New_Gradient_Swatch_4"/>
  </defs>
  <g id="Layer_1-2" data-name="Layer 1">
    <g>
      <path class="cls-5" d="m12.53,0H1.36C.61,0,0,.61,0,1.36v14c0,.75.61,1.35,1.36,1.35h11.17c.75,0,1.36-.61,1.36-1.35V1.36c0-.75-.61-1.36-1.36-1.36ZM1.63,1.56h1.26c.16,0,.29.13.29.29s-.13.29-.29.29h-1.26c-.16,0-.29-.13-.29-.29s.13-.29.29-.29Zm11.95,2.14H.38c-.16,0-.29-.13-.29-.29s.13-.29.29-.29h13.2c.16,0,.29.13.29.29s-.13.29-.29.29Z"/>
      <path class="cls-1" d="m13.87,3.41c0,.16-.13.29-.29.29H.38c-.16,0-.29-.13-.29-.29s.13-.29.29-.29h13.2c.16,0,.29.13.29.29Z"/>
      <path class="cls-3" d="m3.18,1.85c0,.16-.13.29-.29.29h-1.26c-.16,0-.29-.13-.29-.29s.13-.29.29-.29h1.26c.16,0,.29.13.29.29Z"/>
    </g>
    <g>
      <path class="cls-6" d="m10.57,13.3l-.25.24-.17.17h0c-.89.79-2.01,1.22-3.2,1.22-2.66,0-4.82-2.17-4.82-4.83s2.16-4.82,4.82-4.82c1.19,0,2.32.43,3.2,1.22h0s.12.11.12.11l.06.05h0l.25.24h-.01c.78.89,1.21,2,1.21,3.2s-.43,2.31-1.21,3.19h.01Z"/>
      <g>
        <path class="cls-4" d="m10.32,6.66h0c.08.08.16.16.24.25h.01s-.25-.25-.25-.25Zm.24,6.63c-.07.09-.15.17-.24.25l.25-.24h-.01Z"/>
        <path class="cls-2" d="m10.56,6.92c-.07-.09-.15-.17-.24-.25l-.06-.05s-.08-.08-.12-.11c-.89-.79-2.01-1.22-3.2-1.22-2.66,0-4.82,2.16-4.82,4.82s2.16,4.83,4.82,4.83c1.19,0,2.32-.43,3.2-1.22.06-.05.12-.11.18-.16.08-.08.16-.17.24-.25.78-.88,1.21-2,1.21-3.19s-.43-2.31-1.21-3.19Zm-3.61,7.44c-2.34,0-4.24-1.91-4.24-4.25s1.9-4.24,4.24-4.24c1.01,0,1.96.35,2.73.99-.02.02-.05.04-.07.07-.03.02-.06.05-.08.07-.13.12-.25.24-.36.38-.04.05-.08.1-.12.15-.01.02-.03.03-.04.05-.03.04-.07.09-.1.14-.02.03-.04.06-.06.09-.02.03-.04.05-.05.08-.51-.42-1.17-.66-1.84-.66-1.59,0-2.89,1.3-2.89,2.89s1.3,2.89,2.89,2.89c.67,0,1.32-.24,1.84-.66.01.03.03.05.05.08.03.04.06.09.09.13,0,.02.02.03.03.04.04.05.08.1.12.15t0,0c.04.06.09.11.14.17,0,0,0,0,0,0,.05.05.1.11.15.16.05.05.1.1.16.15.03.03.07.06.1.09.02.02.03.03.05.05-.76.64-1.72.99-2.73.99Zm1.2-4.06s0,.04,0,.06c0,0,0,.02,0,.03,0,.07,0,.14.02.21,0,.02,0,.03,0,.05,0,.03,0,.06.01.09,0,.03,0,.05.01.08,0,0,0,0,0,.01,0,.03,0,.05.02.08,0,.04.02.09.03.13,0,.03.01.06.02.09.01.05.03.11.04.16,0,.02,0,.03.01.05.02.06.04.12.06.18,0,.02,0,.03.02.05,0,0,0,0,0,0,.01.03.02.07.04.1,0,0,0,.02,0,.03.02.04.03.08.05.11h0c-.42.39-.98.61-1.56.61-1.28,0-2.31-1.04-2.31-2.31s1.04-2.31,2.31-2.31c.58,0,1.13.22,1.56.6,0,.01,0,.02-.01.03-.03.07-.06.14-.09.21,0,.02-.01.03-.02.04-.01.03-.02.06-.03.09,0,.03-.02.06-.03.09h0s0,.03-.01.05c-.02.05-.03.1-.04.15,0,0,0,.02,0,.03,0,.02-.01.05-.02.07-.01.05-.02.09-.03.14,0,.03-.01.06-.02.09,0,.06-.02.11-.02.17,0,.02,0,.05,0,.07,0,.05,0,.09-.01.14,0,.02,0,.04,0,.05,0,.01,0,.02,0,.03,0,.02,0,.04,0,.06,0,.06,0,.12,0,.18s0,.12,0,.18Z"/>
        <path class="cls-9" d="m9.61,13.31s.03.03.05.05c-.76.64-1.72.99-2.73.99-2.34,0-4.24-1.91-4.24-4.25s1.9-4.24,4.24-4.24c1.01,0,1.96.35,2.73.99-.02.02-.05.04-.07.07-.03.02-.06.05-.08.07-.13.12-.25.24-.36.38-.04.05-.08.1-.12.15-.01.02-.03.03-.04.05-.03.04-.07.09-.1.14-.02.03-.04.06-.06.09-.02.03-.04.05-.05.08-.51-.42-1.17-.66-1.84-.66-1.59,0-2.89,1.3-2.89,2.89s1.3,2.89,2.89,2.89c.67,0,1.32-.24,1.84-.66.01.03.03.05.05.08.03.04.06.09.09.13,0,.02.02.03.03.04.04.05.08.1.12.15t0,0c.04.06.09.11.14.17,0,0,0,0,0,0,.05.05.1.11.15.16.05.05.1.1.16.15.03.03.07.06.1.09Z"/>
        <path class="cls-7" d="m8.45,11.7s.03.08.05.11h0c-.42.39-.98.61-1.56.61-1.28,0-2.31-1.04-2.31-2.31s1.04-2.31,2.31-2.31c.58,0,1.13.22,1.56.6,0,.01,0,.02-.01.03-.03.07-.06.14-.09.21,0,.02-.01.03-.02.04-.01.03-.02.06-.03.09,0,.03-.02.06-.03.09h0s0,.03-.01.05c-.02.05-.03.1-.04.15,0,0,0,.02,0,.03,0,.02-.01.05-.02.07-.01.05-.02.09-.03.14,0,.03-.01.06-.02.09,0,.06-.02.11-.02.17,0,.02,0,.05,0,.07,0,.05,0,.09-.01.14,0,.02,0,.04,0,.05,0,.01,0,.02,0,.03,0,.02,0,.04,0,.06,0,.06,0,.12,0,.18s0,.12,0,.18c0,.02,0,.04,0,.06,0,0,0,.02,0,.03,0,.07,0,.14.02.21,0,.02,0,.03,0,.05,0,.03,0,.06.01.09,0,.03,0,.05.01.08,0,0,0,0,0,.01,0,.03,0,.05.02.08,0,.04.02.09.03.13,0,.03.01.06.02.09.01.05.03.11.04.16,0,.02,0,.03.01.05.02.06.04.12.06.18,0,.02,0,.03.02.05,0,0,0,0,0,0,.01.03.02.07.04.1,0,0,0,.02,0,.03Z"/>
        <path class="cls-8" d="m10.15,13.71h0s.17-.16.17-.16c-.06.06-.12.11-.18.16Zm0-7.21h0s.08.08.12.11l-.12-.11Z"/>
      </g>
    </g>
  </g>
</svg>