<?xml version="1.0" encoding="UTF-8"?>
<svg id="Layer_2" data-name="Layer 2" xmlns="http://www.w3.org/2000/svg" viewBox="0 0 378.51 380">
  <defs>
    <style>
      .cls-1 {
        fill: #1d9fd9;
      }

      .cls-1, .cls-2 {
        stroke-width: 0px;
      }

      .cls-2 {
        fill: #3a4284;
      }
    </style>
  </defs>
  <g id="Layer_1-2" data-name="Layer 1">
    <g id="vacuum_cleaner_2" data-name="vacuum cleaner_2">
      <g id="Group_36" data-name="Group 36">
        <path id="Vector_86" data-name="Vector 86" class="cls-2" d="m188.52,235.07v-21.32c0-49.05-36.94-88.07-83.13-93.61v-8.07c0-49.52,40.29-89.8,89.81-89.8,44.66,0,81.93,32.55,88.7,75.69-13.22,4.97-22.65,17.73-22.65,32.66v71.26c0,15.34,9.96,28.39,23.75,33.05v27.06h-18.55c-4.65,0-8.8,2.88-10.43,7.23l-15.1,40.27h110.43l-15.11-40.27c-1.62-4.35-5.78-7.23-10.42-7.23h-18.55v-27.06c13.79-4.66,23.75-17.71,23.75-33.05v-71.26c0-15.7-10.44-29.01-24.73-33.37C299.03,42.04,251.88,0,195.2,0c-61.8,0-112.08,50.27-112.08,112.07v8.05c7.42-.87,14.89-.86,22.27.03v48.68c13.79,4.65,23.75,17.7,23.75,33.05,0,19.23-15.64,34.88-34.88,34.88s-34.88-15.65-34.88-34.88c0-15.35,9.96-28.4,23.74-33.05v-48.7C36.33,125.68,0,165.39,0,213.75v21.33c56.86,35.41,130.08,36.38,188.52-.01Z"/>
        <path id="Vector_87" data-name="Vector 87" class="cls-1" d="m94.26,214.49c6.97,0,12.62-5.65,12.62-12.61s-5.65-12.62-12.62-12.62-12.62,5.65-12.62,12.62,5.65,12.61,12.62,12.61Z"/>
        <path id="Vector_88" data-name="Vector 88" class="cls-2" d="m105.39,283.95v12.92c0,6.15-4.98,11.14-11.13,11.14s-11.14-4.99-11.14-11.14v-12.92c-29.41-1.6-57.64-9.49-83.12-23.05v83.47c0,6.15,4.98,11.14,11.13,11.14h12.62v13.36c0,6.15,4.98,11.13,11.13,11.13s11.14-4.98,11.14-11.13v-13.36h96.48v13.36c0,6.15,4.98,11.13,11.13,11.13s11.14-4.98,11.14-11.13v-13.36h12.61c6.15,0,11.14-4.99,11.14-11.14v-83.46c-25.49,13.55-53.72,21.44-83.13,23.04Z"/>
        <path id="Vector_89" data-name="Vector 89" class="cls-1" d="m213.75,342.89v25.98c0,6.15,4.98,11.13,11.13,11.13h142.5c6.15,0,11.13-4.98,11.13-11.13v-25.98c0-6.15-4.98-11.13-11.13-11.13h-142.5c-6.15,0-11.13,4.98-11.13,11.13Z"/>
      </g>
    </g>
  </g>
</svg>