<?xml version="1.0" encoding="UTF-8"?>
<svg id="Layer_2" data-name="Layer 2" xmlns="http://www.w3.org/2000/svg" viewBox="0 0 174.84 140.45">
  <defs>
    <style>
      .cls-1 {
        stroke-width: 0px;
      }
    </style>
  </defs>
  <g id="_Ñëîé_1" data-name="Ñëîé 1">
    <path class="cls-1" d="M46.4,85.27s-3.8,1.88-8.86,2.38c-.4,7.17-2.42,12.67-2.42,12.67,0,0-2.02-5.5-2.42-12.67-5.07-.5-8.86-2.38-8.86-2.38,0,0,3.8-1.88,8.86-2.38.4-7.17,2.42-12.67,2.42-12.67,0,0,2.02,5.5,2.42,12.67,5.07.5,8.86,2.38,8.86,2.38ZM97.73,34.99c5.07-.5,8.86-2.38,8.86-2.38,0,0-3.8-1.88-8.86-2.38-.4-7.17-2.42-12.67-2.42-12.67,0,0-2.02,5.5-2.42,12.67-5.07.5-8.86,2.38-8.86,2.38,0,0,3.8,1.88,8.86,2.38.4,7.17,2.42,12.67,2.42,12.67,0,0,2.02-5.5,2.42-12.67ZM169.95,125.35c.2,0,.4-.05.6-.1v15.2H0V0h170.55v66.31l-1.55-1.55c-.9-.9-2.11-1.45-3.46-1.56V5.02h-100.32v130.42h100.32v-10.83c1.25.65,2.81.9,4.41.75ZM60.19,135.43V5.02H5.02v130.42h55.18ZM170.55,80.91l-5.02,5.02v10.83l5.02,4.97v-20.82ZM121.69,109.65c-.95-.95-.95-2.56,0-3.51l39.02-39.02c.5-.5,1.15-.75,1.76-.75.65,0,1.3.25,1.81.75l1.25,1.25,4.06,4.06c.95.95.95,2.56,0,3.56l-4.06,4.06-34.96,34.91c-.5.5-1.15.75-1.76.75-.65,0-1.3-.25-1.81-.75l-5.32-5.32ZM127.01,107.9l1.81,1.76,35.46-35.46-1.81-1.76-35.46,35.46ZM121.69,102.58l35.46-35.46-1.15-1.2c-1-.95-2.56-.95-3.56,0l-31.9,31.95c-1,.95-1,2.56,0,3.51l1.15,1.2ZM173.71,113.82l-3.16-3.16-5.02-5.02-11.34-11.34-5.32,5.32,16.65,16.65,2.86,2.86c.6.6,1.35.95,2.16,1.05,1.15.15,2.31-.2,3.16-1.05,1.5-1.45,1.5-3.86,0-5.32ZM113.6,92.06c.49.49,1.13.73,1.77.73s1.28-.24,1.77-.73c.98-.98.98-2.57,0-3.55l-15.05-15.05c-.98-.98-2.57-.98-3.55,0s-.98,2.57,0,3.55l15.05,15.05ZM145.57,62.59c.65,0,1.29-.25,1.78-.74.97-.98.97-2.57-.01-3.55l-25.19-24.97c-.98-.98-2.57-.97-3.55.01-.97.98-.97,2.57.01,3.55l25.19,24.97c.49.49,1.13.73,1.77.73ZM126.06,55.99c-.97.99-.95,2.58.04,3.55l10.14,9.92c.49.48,1.12.72,1.75.72s1.3-.25,1.79-.75c.97-.99.95-2.58-.04-3.55l-10.14-9.92c-.99-.97-2.57-.95-3.55.04ZM88.52,63.44c-.98.98-.98,2.57,0,3.55l2.26,2.26c.49.49,1.13.73,1.77.73s1.28-.24,1.77-.73c.98-.98.98-2.57,0-3.55l-2.26-2.26c-.98-.98-2.57-.98-3.55,0Z"/>
  </g>
</svg>